<svg xmlns="http://www.w3.org/2000/svg" xmlns:xlink="http://www.w3.org/1999/xlink" viewBox="0 0 114.73 284.73"><defs><style>.cls-1{isolation:isolate;}.cls-2,.cls-49,.cls-7{fill:#fbd0b4;}.cls-3{fill:#b56a4d;}.cls-4{fill:#9e0700;}.cls-10,.cls-12,.cls-20,.cls-21,.cls-22,.cls-24,.cls-31,.cls-33,.cls-36,.cls-37,.cls-42,.cls-44,.cls-45,.cls-47,.cls-5,.cls-51,.cls-7{mix-blend-mode:multiply;}.cls-6{fill:none;}.cls-13,.cls-8{fill:#fdbb30;}.cls-9{fill:#f09432;}.cls-10,.cls-44,.cls-46,.cls-51{opacity:0.5;}.cls-11,.cls-44{fill:#cc8a15;}.cls-12{fill:#ad5709;}.cls-13,.cls-34,.cls-49{mix-blend-mode:screen;}.cls-13,.cls-31,.cls-33{opacity:0.6;}.cls-14{fill:#ce7406;}.cls-15{fill:#271e30;}.cls-16{fill:#8d519b;}.cls-17,.cls-46{fill:#fff;}.cls-18{fill:#999593;}.cls-19{fill:#bfc0c5;}.cls-20{fill:#f9ceb2;}.cls-21{fill:url(#radial-gradient);}.cls-22{fill:url(#radial-gradient-2);}.cls-23{fill:#da589b;}.cls-24{fill:#ebb698;}.cls-25{fill:#fffaf6;}.cls-26{fill:#8e370a;}.cls-27{fill:#e3dbd1;}.cls-28{fill:#3f1d08;}.cls-29{fill:#3d9ba7;}.cls-30{fill:#3d979c;}.cls-32{fill:#010905;}.cls-33{fill:#2f326e;}.cls-35{fill:#3dc2aa;}.cls-36,.cls-37{opacity:0.7;}.cls-36{fill:url(#radial-gradient-3);}.cls-37{fill:url(#radial-gradient-4);}.cls-38{fill:#941511;}.cls-39{fill:#d8d8d8;}.cls-40{fill:#9f5216;}.cls-41,.cls-42,.cls-51{fill:#4b5157;}.cls-43{fill:#899497;}.cls-45{fill:url(#radial-gradient-5);}.cls-47{fill:url(#radial-gradient-6);}.cls-48{fill:#852b36;}.cls-50{fill:#fcece3;}.cls-52{fill:#3f344c;}.cls-53{fill:#ff200a;}</style><radialGradient id="radial-gradient" cx="32.48" cy="63.35" r="11.18" gradientTransform="translate(41.86 -1.69) rotate(3.39)" gradientUnits="userSpaceOnUse"><stop offset="0.12" stop-color="#f6a0a0"/><stop offset="1" stop-color="#fff"/></radialGradient><radialGradient id="radial-gradient-2" cx="32.27" cy="71.99" r="13.95" xlink:href="#radial-gradient"/><radialGradient id="radial-gradient-3" cx="24.7" cy="62.58" r="9.74" gradientTransform="matrix(1.08, -0.26, 0.31, 0.97, 10.58, 0.77)" xlink:href="#radial-gradient"/><radialGradient id="radial-gradient-4" cx="306.44" cy="157.43" r="9.74" gradientTransform="matrix(-1.05, -0.39, -0.42, 0.92, 472.02, 28.1)" xlink:href="#radial-gradient"/><radialGradient id="radial-gradient-5" cx="32.48" cy="63.35" r="11.18" xlink:href="#radial-gradient"/><radialGradient id="radial-gradient-6" cx="32.27" cy="71.99" r="13.95" xlink:href="#radial-gradient"/></defs><g class="cls-1"><g id="Layer_2" data-name="Layer 2"><g id="Layer_1-2" data-name="Layer 1"><path class="cls-2" d="M59.42,276.74c3.16-.12,5.13-1.15,5.8-4.17a38.22,38.22,0,0,0,.65-8c0-1.41.35-4.72.35-4.72h0c.07-3,.25-8.81.12-22.68-.65-23.66-.85-44.67-.85-44.67l-14.33-1.27c-.2,1.23-1.38,7.2-2.06,10.09-.9,3.77-.81,11,1.32,20,1.82,7.67,4.35,16.29,5.73,23.74s2.25,17.46,2.25,17.46A12.42,12.42,0,0,0,55.53,267c-.27.93-.76,2.73-1.33,5.24C53.32,276.06,56.26,276.86,59.42,276.74Z"/><path class="cls-3" d="M57.78,276.93h0a4.52,4.52,0,0,1-3.41-1.52A3.85,3.85,0,0,1,54,272.2c.59-2.57,1.09-4.39,1.34-5.25a12.65,12.65,0,0,1,2.86-4.49c-.11-1.15-1-10.4-2.24-17.32-.88-4.77-2.25-10.08-3.58-15.21-.73-2.83-1.49-5.77-2.14-8.52-2.25-9.5-2.16-16.63-1.33-20.13.69-2.93,1.87-8.88,2.06-10.07a.23.23,0,0,1,.24-.19l14.33,1.26h0a.23.23,0,0,1,.2.22c0,.21.21,21.29.85,44.67.12,13,0,18.91-.1,22.09v.61a.19.19,0,0,1,0,.08c0,.47-.36,3.37-.35,4.64a38.36,38.36,0,0,1-.65,8c-.65,2.91-2.45,4.21-6,4.34A14.67,14.67,0,0,1,57.78,276.93Zm-6.42-85.45c-.27,1.56-1.37,7.1-2,9.9-.82,3.45-.9,10.5,1.33,19.93.65,2.75,1.41,5.68,2.14,8.51,1.33,5.14,2.7,10.45,3.59,15.24,1.37,7.37,2.24,17.38,2.25,17.48a.2.2,0,0,1-.08.19,11.86,11.86,0,0,0-2.81,4.37c-.24.83-.74,2.64-1.33,5.2a3.37,3.37,0,0,0,.33,2.84,4,4,0,0,0,3.08,1.34h0a11.67,11.67,0,0,0,1.59,0c3.37-.13,5-1.29,5.59-4a38.73,38.73,0,0,0,.65-7.93c0-1.4.34-4.61.35-4.75a.43.43,0,0,0,0,0l0-.54c.07-3.18.22-9.09.1-22.07-.62-22.16-.83-42.25-.85-44.47Z"/><path class="cls-4" d="M66.23,259.86h0s-.36,3.31-.35,4.72a38.22,38.22,0,0,1-.65,8c-.67,3-2.64,4.05-5.8,4.17s-6.1-.68-5.22-4.49c.57-2.51,1.06-4.31,1.33-5.24-.3.7-.57,1.43-.79,2.12-.82,2.59-1.3,2.39-3.58,6.51-2,5.14.05,6.91,5.74,7.42s9.19-1.34,9.62-5.21c.48-4.37.5-11.11-.08-13.91A15.17,15.17,0,0,1,66.23,259.86Z"/><path class="cls-4" d="M56.88,283.33c-3.46-.31-5.39-1.08-6.25-2.47s-.67-2.93.28-5.32c1-1.73,1.6-2.71,2.07-3.43a9.71,9.71,0,0,0,1.5-3.06c.22-.7.5-1.42.81-2.15l.5.18c-.24.86-.75,2.67-1.33,5.23a3.39,3.39,0,0,0,.31,2.81c.71,1,2.29,1.44,4.64,1.35,3.34-.12,5-1.27,5.55-4a37.74,37.74,0,0,0,.64-7.92c0-1.41.34-4.62.36-4.75l0-.21.52-.06v.3a15,15,0,0,0,.2,4c.61,2.91.55,9.79.09,14C66.34,281.87,62.73,283.85,56.88,283.33Zm-2.72-12.09c-.21.38-.44.73-.73,1.17-.47.71-1.11,1.68-2,3.36-.85,2.16-1,3.74-.3,4.81.76,1.24,2.56,1.92,5.84,2.21,5.6.51,8.92-1.26,9.33-5,.45-4.16.51-11-.08-13.82l0-.13c0,.27,0,.52,0,.72a39.36,39.36,0,0,1-.66,8c-.65,2.93-2.46,4.24-6.05,4.37-2.55.1-4.27-.43-5.09-1.57a3.88,3.88,0,0,1-.41-3.24C54,271.86,54.08,271.55,54.16,271.24Z"/><path class="cls-3" d="M55.76,201.59a2.33,2.33,0,0,1,.46-.06,3.71,3.71,0,0,1,1,.09,4.48,4.48,0,0,1,.52.16,2.33,2.33,0,0,1,.42.23.92.92,0,0,1,.27.23l.08.1-.13,0c-.08,0-.18-.05-.32-.07s-.27-.06-.44-.08l-.5-.1a9.06,9.06,0,0,1-.94-.28A4.35,4.35,0,0,1,55.76,201.59Z"/><g class="cls-5"><path class="cls-2" d="M65.87,264.59c0-1.41.35-4.72.35-4.72h0c.07-3,.25-8.81.12-22.68-.65-23.66-.85-44.67-.85-44.67l-14.33-1.27c-.2,1.23-1.38,7.2-2.06,10.09-.9,3.77-.81,11,1.32,20,.51,2.14,1.07,4.36,1.65,6.6-.8-4.24-3.93-23.34,4.33-23.39,9.29-.06,7.31,25,7.76,40.89.35,12.46-.37,16.12.07,18.35s1,10.63-4.23,11.32-5-2.64-2.92-7.59c1.11-2.33,1.64-3.77,1.26-5.67,0,.44.06.69.06.69A12.42,12.42,0,0,0,55.53,267c-.27.93-.76,2.73-1.33,5.24-.88,3.81,2.06,4.61,5.22,4.49s5.13-1.15,5.8-4.17A38.22,38.22,0,0,0,65.87,264.59Zm-9.11-64c-2.88-.71-6-4.67-2.54-5.69,0,0,7.14-.76,7.76,2.8S59.65,201.29,56.76,200.59Z"/></g><path class="cls-6" d="M54.22,194.9c-3.5,1-.34,5,2.54,5.69s5.83.66,5.22-2.89S54.22,194.9,54.22,194.9Z"/><path class="cls-2" d="M66.23,259.86h0Z"/><path class="cls-7" d="M66.22,259.87h0c.07-3,.24-8.82.11-22.68-.65-23.66-.85-44.67-.85-44.67l-1.8-.16c0,3.75,0,10,.25,15.26C64.31,215.62,66,243.7,66.22,259.87Z"/><path class="cls-2" d="M77.4,278.47c3.27.57,7-1.37,9.45-8.05a25.53,25.53,0,0,0,1.47-7.92,65.67,65.67,0,0,1-.69-14.2c.57-6.38,2.31-30.31-1.87-47.84a21.28,21.28,0,0,1,.83-9.3L68.9,192.5a111.93,111.93,0,0,0,2.55,19.64c2.5,12.15,5.38,36.13,6.3,45.13.3,6.21.2,10.92-4.07,17.51C73.58,276.33,74.13,277.9,77.4,278.47Z"/><path class="cls-3" d="M77.9,278.76h0a5,5,0,0,1-.54-.07c-2.81-.49-4-1.74-3.9-3.92a.21.21,0,0,1,0-.11c4.22-6.52,4.34-11.11,4-17.38-.92-9-3.79-32.9-6.3-45.1a112.4,112.4,0,0,1-2.55-19.68.21.21,0,0,1,.2-.22l17.69-1.34a.19.19,0,0,1,.19.08.21.21,0,0,1,0,.2l-.1.36a20.5,20.5,0,0,0-.73,8.84c4.16,17.42,2.48,41.07,1.87,47.9a65.77,65.77,0,0,0,.69,14.15,25.64,25.64,0,0,1-1.48,8C84.22,278.15,80.11,279,77.9,278.76Zm-4-3.9c-.07,1.29.28,2.83,3.54,3.39a4,4,0,0,0,.5.07c2.08.19,6-.6,8.7-8a24.86,24.86,0,0,0,1.45-7.85,67.57,67.57,0,0,1-.69-14.22c.62-6.81,2.29-30.4-1.86-47.77a20.82,20.82,0,0,1,.74-9l0-.06-17.17,1.3a116.07,116.07,0,0,0,2.54,19.38c2.51,12.22,5.38,36.12,6.3,45.16C78.28,263.59,78.17,268.25,73.9,274.86Z"/><path class="cls-4" d="M88.32,262.5a25.53,25.53,0,0,1-1.47,7.92c-2.48,6.68-6.18,8.62-9.45,8.05s-3.82-2.14-3.72-3.69c-2.47,1.93-5.34,3.2-5.13,6.9.3,2.63,4.81,2.75,8,2.78,4.9.06,7.4-.56,9.09-4s5.3-7.87,4-11.82A38.88,38.88,0,0,1,88.32,262.5Z"/><path class="cls-4" d="M73.4,284.6h0c-3.25-.29-4.93-1.24-5.12-2.9-.18-3.23,1.84-4.68,4-6.2.42-.3.85-.61,1.26-.93l.47-.36,0,.59c-.09,1.29.23,2.84,3.5,3.41l.5.07c3.56.32,6.63-2.51,8.65-7.95a25,25,0,0,0,1.45-7.83l.53,0a39.06,39.06,0,0,0,1.3,6.07c1.07,3.18-.89,6.58-2.63,9.58-.5.86-1,1.68-1.35,2.45-1.77,3.61-4.42,4.22-9.34,4.16C75.55,284.72,74.47,284.7,73.4,284.6Zm0-9.28-.84.61c-2.1,1.5-3.92,2.8-3.76,5.73.16,1.35,1.67,2.14,4.64,2.41,1,.1,2.12.12,3.12.13,4.79.05,7.2-.49,8.85-3.86.39-.79.86-1.61,1.37-2.49,1.68-2.9,3.58-6.19,2.59-9.14a29.78,29.78,0,0,1-.95-3.88,31.28,31.28,0,0,1-1.33,5.67c-2.85,7.69-7,8.51-9.2,8.31h0l-.55-.07C74.8,278.29,73.51,277.17,73.41,275.32Z"/><path class="cls-3" d="M73.74,202.56a4.2,4.2,0,0,1,.52.12,5,5,0,0,1,1,.46,3.82,3.82,0,0,1,.51.35,2.88,2.88,0,0,1,.4.36,1.52,1.52,0,0,1,.23.32.92.92,0,0,1,.07.13l-.13-.07c-.09,0-.18-.11-.33-.18s-.28-.15-.46-.24-.33-.19-.51-.29a9,9,0,0,1-.94-.62A4.29,4.29,0,0,1,73.74,202.56Z"/><g class="cls-5"><path class="cls-2" d="M88.32,262.5a65.67,65.67,0,0,1-.69-14.2c.57-6.38,2.31-30.31-1.87-47.84a21.28,21.28,0,0,1,.83-9.3L68.9,192.5a111.93,111.93,0,0,0,2.55,19.64c.6,2.89,1.21,6.47,1.82,10.34-.8-7.22-1.17-16.18,2-16.06,5.23.22,10.79,10.54,10.28,29.66s-.63,23.38.34,27.49-.69,9.18-4.2,12.48-8.33.33-6-3.08,2.27-7.3,2.25-10.12a3.19,3.19,0,0,0-.06-.59,23.13,23.13,0,0,1-4.14,12.52c-.1,1.55.45,3.12,3.72,3.69s7-1.37,9.45-8.05A25.53,25.53,0,0,0,88.32,262.5ZM74,201.12c-2.12-1.23-5-4.47-1.93-5.09,0,0,7.37-.69,7.5,2.91S76.17,202.36,74,201.12Z"/></g><path class="cls-6" d="M72.11,196c-3,.62-.19,3.86,1.93,5.09s5.7,1.41,5.57-2.18S72.11,196,72.11,196Z"/><path class="cls-7" d="M84,202.18c1.76,7.26,4.1,19.53,2.58,44.4a45.64,45.64,0,0,0,1.63,17.9,19.58,19.58,0,0,0,.12-2,65.67,65.67,0,0,1-.69-14.2c.57-6.38,2.31-30.31-1.87-47.84a21.28,21.28,0,0,1,.83-9.3l-3.54.27A29.82,29.82,0,0,0,84,202.18Z"/><path class="cls-8" d="M86.71,6.36S81.15-6.22,54.11,4.77C35.28,15.07,31.35,29.65,31.35,29.65c-1-.74-1.75,1.42-1.7,3.79-1.88-.62-4.14,8.08,2.49,19.61,5.07,6.18,9.6,6.36,14.59,3.27s30.68-6.38,47.75.33c8.13,4.05,13.23,2.21,17.09-5.76s.37-18.33-1.65-17.21c.19-3.19-.67-3.78-.67-3.78S105.3,4.51,86.71,6.36Z"/><path class="cls-9" d="M40.36,58.54c-2.88-.17-5.64-1.91-8.43-5.32C26.28,43.39,27.09,36,28.36,33.93c.37-.59.74-.76,1-.78a5.69,5.69,0,0,1,1-3.64.87.87,0,0,1,.66-.27.57.57,0,0,1,.18,0C31.9,27.08,36.79,13.94,54,4.54,62.15,1.22,69.16-.29,74.86.05c8.65.51,11.49,5.06,12,6a18.93,18.93,0,0,1,2.81,0c15.56.92,19.54,22.14,19.82,23.74.24.25.79,1.1.7,3.56.53,0,1.09.44,1.61,1.32,1.82,3.1,2.83,10.51,0,16.36s-6.13,8.23-10.61,8a17.88,17.88,0,0,1-6.84-2.09,62,62,0,0,0-18.84-3.73c-13.1-.78-25.51,1.45-28.65,3.39A11.16,11.16,0,0,1,40.36,58.54ZM29.48,33.68c-.2,0-.45.18-.66.53-1.17,1.89-1.9,9.22,3.55,18.71,2.67,3.25,5.3,4.92,8,5.08a10.57,10.57,0,0,0,6.2-1.91c3.62-2.24,16.4-4.21,29-3.47a62.71,62.71,0,0,1,19,3.78,17.37,17.37,0,0,0,6.65,2c4.24.26,7.45-2.18,10.1-7.66,3-6.15,1.48-13.37,0-15.86-.47-.8-.94-1.2-1.3-1a.31.31,0,0,1-.28,0,.25.25,0,0,1-.12-.24c.17-2.93-.55-3.55-.56-3.55a.29.29,0,0,1-.1-.18c0-.22-3.68-22.45-19.34-23.37a17.94,17.94,0,0,0-2.92.06.27.27,0,0,1-.27-.16S84,1.12,74.83.58C69.21.25,62.28,1.74,54.21,5A51.8,51.8,0,0,0,35.91,21.2a32.13,32.13,0,0,0-4.3,8.52.28.28,0,0,1-.17.18.25.25,0,0,1-.25,0,.35.35,0,0,0-.21-.09.34.34,0,0,0-.26.12,5.62,5.62,0,0,0-.8,3.55.29.29,0,0,1-.11.22.26.26,0,0,1-.24,0Z"/><g class="cls-10"><path class="cls-11" d="M108.49,48.75c-.53-3.06,2.29-5.57,1.58-11.67-.42,4.07-2.41,4.67-3.79,3.87s.54-3.17,2.29-8.59c-2.55,4-6,4.63-5.31,2.36.71-3,.36-9.07-6.47-17.14,5.1,7.25,3.3,20.1,1,17.83-4.61-3.88-7.41-9.21-7.37-12.73a13.79,13.79,0,0,0-3,10.07s-3.71-6.62-4.16-11.4a26.1,26.1,0,0,1-5.93,7.82,8.61,8.61,0,0,0,1.57-6.31c-4.31,8.55-15.23,10.5-15.23,10.5a50.33,50.33,0,0,0,6-10.25c-9.1,8.27-21.21,10-28.15,10,2.93,5.59-4.19,2.14-9.39-1.37,2.21,6.53,7.11,8.42,6,9.76S34,43.82,30.06,36.58C30.82,44,34.79,51.27,31,47a19.81,19.81,0,0,1-3-4.62,33.62,33.62,0,0,0,4.06,10.63c5.07,6.18,9.6,6.36,14.59,3.27s30.68-6.38,47.75.33c8.13,4.05,13.23,2.21,17.09-5.76a18.49,18.49,0,0,0,1.73-8.12C112.24,49.11,108.89,51,108.49,48.75Z"/></g><path class="cls-12" d="M31.35,29.65s.08.28.25.77c.1.23.2.53.36.84a11.87,11.87,0,0,0,.54,1.06,12.75,12.75,0,0,0,.75,1.19l.45.62.51.61c.34.43.76.8,1.15,1.21s.87.75,1.31,1.11.93.69,1.42,1,1,.59,1.46.83l1.41.68c.46.19.91.35,1.32.51a10.09,10.09,0,0,0,1.12.39l.89.27.77.25-.8-.15-.91-.18c-.18,0-.37-.06-.56-.11l-.61-.19-1.37-.43-1.47-.62c-.51-.23-1-.53-1.52-.81s-1-.66-1.47-1-.92-.76-1.34-1.16A15.24,15.24,0,0,1,33.85,35c-.17-.22-.35-.43-.5-.66l-.43-.66c-.27-.43-.49-.86-.69-1.26a11.62,11.62,0,0,1-.46-1.12c-.12-.34-.19-.65-.27-.89A7.08,7.08,0,0,1,31.35,29.65Z"/><path class="cls-12" d="M29.65,33.44s0,.27.1.74.2,1.14.39,1.93A20.1,20.1,0,0,0,31,38.72a14.24,14.24,0,0,0,1.49,2.76,10.87,10.87,0,0,0,1,1.23c.18.19.38.36.55.54l.58.49.59.43.6.38.59.31.58.25c.37.15.72.27,1,.37s.59.18.83.22l.73.16-.75,0c-.24,0-.53-.08-.86-.13a10.58,10.58,0,0,1-1.09-.29l-.61-.22-.63-.28L35,44.54c-.22-.13-.42-.28-.64-.42A10,10,0,0,1,32,41.78a11.34,11.34,0,0,1-.85-1.42,12.5,12.5,0,0,1-.63-1.47,16.41,16.41,0,0,1-.71-2.72,15.07,15.07,0,0,1-.2-2A7.22,7.22,0,0,1,29.65,33.44Z"/><path class="cls-12" d="M109.25,29.9a11.58,11.58,0,0,1-.44,2,11.9,11.9,0,0,1-2.11,4,7.48,7.48,0,0,1-1.87,1.61,5.35,5.35,0,0,1-1,.49,4.27,4.27,0,0,1-1,.26,5.36,5.36,0,0,1-.84.09c-.26,0-.48,0-.66,0-.36,0-.56-.08-.56-.08l.56,0,.64-.07c.24-.06.51-.1.8-.19a5.74,5.74,0,0,0,.9-.33,6.2,6.2,0,0,0,.93-.52,7.19,7.19,0,0,0,.89-.7,8.38,8.38,0,0,0,.82-.86,10.53,10.53,0,0,0,.71-.94c.22-.33.43-.66.61-1,.37-.66.67-1.3.91-1.85s.43-1,.55-1.38Z"/><path class="cls-12" d="M109.92,33.68s.06.22.14.6a12.47,12.47,0,0,1,.23,1.62,13.17,13.17,0,0,1-.05,2.32,9.64,9.64,0,0,1-.68,2.59,6.7,6.7,0,0,1-.67,1.2,5.73,5.73,0,0,1-.86,1l-.48.41-.5.35-.5.28-.49.23a6.43,6.43,0,0,1-.88.29c-.27.06-.5.13-.69.15l-.61.08.58-.18c.19,0,.41-.15.66-.24s.52-.23.82-.38l.44-.25.45-.3.44-.36.43-.42a7.46,7.46,0,0,0,.77-1,7.62,7.62,0,0,0,.6-1.13,10.5,10.5,0,0,0,.71-2.45,16,16,0,0,0,.21-2.24A18.54,18.54,0,0,0,109.92,33.68Z"/><path class="cls-12" d="M99.8,39.68a22.55,22.55,0,0,0,.71-3.19c.09-.48.13-1,.2-1.57s.1-1.14.12-1.75,0-1.24,0-1.88c0-.32,0-.64,0-1l-.08-1c0-.65-.15-1.29-.23-1.93s-.24-1.24-.34-1.84-.3-1.16-.44-1.71a14.82,14.82,0,0,0-.47-1.5c-.18-.46-.29-.9-.45-1.26l-.4-.95-.34-.84s.15.29.43.79L99,21c.2.35.35.78.55,1.23s.41.95.57,1.5.39,1.1.51,1.71.32,1.22.4,1.87.22,1.3.25,2l.07,1c0,.33,0,.66,0,1,0,.66,0,1.3-.07,1.92s-.13,1.21-.2,1.77-.18,1.09-.3,1.57a13,13,0,0,1-.34,1.31c-.11.39-.22.72-.32,1A8,8,0,0,1,99.8,39.68Z"/><path class="cls-12" d="M55.74,19.2a19.29,19.29,0,0,1-3.11,2.58A14.8,14.8,0,0,1,49,23.57c-.33.1-.66.18-1,.25a8.77,8.77,0,0,1-1,.12,4.51,4.51,0,0,1-.52,0,3,3,0,0,1-.52,0,6.26,6.26,0,0,1-1-.17,6.1,6.1,0,0,1-1-.34,2.92,2.92,0,0,1-.47-.23,4,4,0,0,1-.45-.26l-.44-.3-.4-.33a7.29,7.29,0,0,1-.74-.73l.46-.19a6.7,6.7,0,0,0,.11.9,5.17,5.17,0,0,0,.23.88l.15.44.18.42a7.82,7.82,0,0,0,.43.81,5.71,5.71,0,0,0,.51.77,7.83,7.83,0,0,0,.57.72c.2.24.44.44.65.66s.47.4.7.61.5.35.75.53a8,8,0,0,0,.81.46,9.75,9.75,0,0,0,1.74.66l.45.13.46.08a5.63,5.63,0,0,0,.93.11,7.34,7.34,0,0,0,.94,0l.94,0-.94.13a7.47,7.47,0,0,1-.95,0,6.06,6.06,0,0,1-1-.06l-.48-.05-.46-.1a5.82,5.82,0,0,1-.93-.26,6.85,6.85,0,0,1-.89-.35,7.84,7.84,0,0,1-.86-.45c-.26-.17-.55-.32-.8-.52a8.82,8.82,0,0,1-.76-.61,7.17,7.17,0,0,1-.68-.67,8.81,8.81,0,0,1-.62-.75,6.23,6.23,0,0,1-.54-.8,6.4,6.4,0,0,1-.46-.85l-.21-.45-.16-.46a5.93,5.93,0,0,1-.26-.94c-.08-.32-.08-.65-.13-1a.26.26,0,0,1,.22-.29.23.23,0,0,1,.2.06l0,0c.24.22.44.48.7.68l.37.32.4.28a2.75,2.75,0,0,0,.41.24,2.49,2.49,0,0,0,.43.22,6.2,6.2,0,0,0,.91.33,6.41,6.41,0,0,0,1,.16,2.63,2.63,0,0,0,.49,0h.48c.33,0,.65-.06,1-.1s.65-.13,1-.22a13.76,13.76,0,0,0,3.64-1.61,19.35,19.35,0,0,0,1.68-1.1C54.71,20.05,55.24,19.64,55.74,19.2Z"/><path class="cls-12" d="M61.46,22.1a8.9,8.9,0,0,1-.78,1.24,12.39,12.39,0,0,1-.93,1.13,14.41,14.41,0,0,1-1,1.05c-.36.34-.73.65-1.1,1l-1.17.9c-.39.28-.81.54-1.22.81s-.84.5-1.26.75l-.64.36-.66.33c-.44.21-.87.44-1.31.64L50,30.84a13.41,13.41,0,0,1-1.38.51l-1.38.48c-.47.15-.94.26-1.41.4l-1.41.38-2.87.59,0-.25.74.39a6.41,6.41,0,0,0,.75.35,8.26,8.26,0,0,0,.77.31,7.35,7.35,0,0,0,.79.27c-.27-.05-.54-.12-.81-.19s-.54-.17-.8-.25a7.61,7.61,0,0,1-.79-.31l-.78-.34a.12.12,0,0,1-.06-.16s.05-.07.08-.07h0l2.82-.71,1.38-.43c.47-.15.94-.27,1.39-.43l1.37-.48c.45-.16.9-.33,1.35-.53l1.33-.56c.44-.19.87-.41,1.31-.62l.65-.31.63-.35c.42-.24.85-.45,1.26-.71L56.22,27l1.18-.83c.37-.31.76-.6,1.12-.91s.73-.63,1.07-1a14,14,0,0,0,1-1A12.2,12.2,0,0,0,61.46,22.1Z"/><path class="cls-13" d="M96.47,11.22s7.32,4.43,9.72,17.53C106.73,31.27,108.65,17.45,96.47,11.22Z"/><g class="cls-5"><path class="cls-11" d="M106.82,52.93c1.83-3.82-.28-7.33-.18-9.1-3.31,1.76-5-2.26-3.76-5.75-7.95,4.88-58.14-2.2-58.14-2.2a5.82,5.82,0,0,1-4.66,3.47c4.11,2.74-.29,4.8-4.77,5.24,5,7.86-.65,7.35-4.25,6.44.33.66.68,1.33,1.08,2,5.07,6.18,9.6,6.36,14.59,3.27s30.68-6.38,47.75.33c7.21,3.59,12,2.55,15.73-3.29C107.57,56,105.47,55.74,106.82,52.93Z"/></g><path class="cls-4" d="M44.41,135.07s-7.25,14-5.93,25.28,3.65,29.8,3.65,29.8,19.62,7.75,47.64,1.61c5.88-19.12,11.63-31.26,8.5-42.7-3.08-10.27-3.83-11.17-3.83-11.17S71.48,119.18,44.41,135.07Z"/><path class="cls-4" d="M59.76,194h0A70.49,70.49,0,0,1,42,190.39l-.14-.06,0-.15c0-.19-2.35-18.66-3.66-29.8s5.89-25.29,6-25.43l0-.07.06,0a43.92,43.92,0,0,1,26.58-6.26,48,48,0,0,1,23.76,9.11c.12.13.91,1.26,3.91,11.29,2.53,9.23-.64,18.83-5,32.12-1.12,3.39-2.28,6.89-3.46,10.74l0,.14-.15,0A99.24,99.24,0,0,1,59.76,194ZM42.38,190a71.32,71.32,0,0,0,17.42,3.53h0a98.7,98.7,0,0,0,29.75-2c1.17-3.79,2.32-7.25,3.42-10.6,4.36-13.2,7.51-22.74,5-31.8-2.78-9.28-3.65-10.86-3.77-11a47.59,47.59,0,0,0-23.43-9,43.39,43.39,0,0,0-26.2,6.15c-.54,1.07-7.12,14.39-5.87,25.06S42.14,188.11,42.38,190Z"/><g class="cls-10"><path class="cls-11" d="M98.27,149.06c-3.08-10.27-3.83-11.17-3.83-11.17s-23-18.71-50-2.82c0,0-7.25,14-5.93,25.28s3.65,29.8,3.65,29.8,19.62,7.75,47.64,1.61C95.65,172.64,101.4,160.5,98.27,149.06Zm-8.9,25.67c-2.16,7.78-3.93,15.72-3.93,15.72s-19.78,4.33-38.35-1.85c-5.37-17.08-8.82-46.74-.09-40.38,0,0,9.38,7.88,30,14C91.17,166.53,91.53,167,89.37,174.73Zm2.46-15.58c-.65,2.86-18,2.76-38.43-9.82-7.26-4.91-8.91-11.69-4.88-9.21l11.59,7L70.5,136.38l10.43,12.5s5.29-1.12,7.7-1.44-1.17,2.69-23.27,3.36l17.91,1.61C91.44,153.14,92.49,156.29,91.83,159.15Z"/></g><path class="cls-14" d="M90.62,151.21l-1.32.49c-.85.32-2.07.74-3.53,1.24l-2.36.78c-.84.28-1.74.53-2.66.83l-2.85.84c-1,.26-2,.56-3,.79s-2,.53-3,.75-1.95.45-2.9.63-1.85.39-2.73.54-1.69.32-2.45.41l-2.09.31-1.61.18-1.41.17,1.42-.06,1.63-.09,2.1-.21c.77-.07,1.6-.21,2.48-.33.44-.07.89-.12,1.35-.2l1.4-.26c.95-.17,1.93-.38,2.92-.61s2-.46,3-.71,2-.56,3-.83,1.93-.59,2.85-.88c1.84-.6,3.54-1.22,5-1.77s2.63-1.07,3.45-1.42Z"/><path class="cls-14" d="M76.9,152l-4.2-.79c-.63-.13-1.32-.24-2-.39s-1.47-.32-2.26-.46c-1.58-.3-3.24-.7-4.91-1.06-.84-.17-1.66-.39-2.48-.58l-2.4-.58c-1.54-.45-3-.83-4.22-1.17-2.42-.83-4.06-1.35-4.06-1.35l1.09.46c.69.28,1.68.71,2.88,1.18s2.65.86,4.19,1.32l2.4.62c.82.21,1.65.44,2.48.62,1.69.34,3.36.72,4.94,1,.79.15,1.56.27,2.29.39s1.41.21,2.05.3c1.27.19,2.34.3,3.08.39S76.9,152,76.9,152Z"/><path class="cls-15" d="M24,96.35c3.58-.84,4.6-6.85,4.88-9.64.63,1.62,3.59,9.31,4.55,12.76,4.27-7.07,7.35-11.83,9.72-15s2.55-4.34,5.17-4.34,9.26.9,9.26.9L83.77,82s2.8.14,7.34.27,4.8,0,6.67,3.47,1.82,4.94,3.87,8c6.94,10.4,13.88,19.21,12.68,26.28-1.2,5.61-8.81,11.34-24.29,9.21,5.61,7.47,6.67,10.41,6.67,10.41L79,148.18,68.56,134.3,56.68,148.44S42.14,140.7,39.2,137.1A33.71,33.71,0,0,1,50.15,125l-3.07-8.14s-4.67,6.27-11.61,6S19.69,109.43,15,96.38A17.71,17.71,0,0,0,24,96.35Z"/><path class="cls-15" d="M56.56,148.68c-.6-.32-14.63-7.81-17.56-11.41a.28.28,0,0,1,0-.29c3.4-6.91,9.71-11.35,10.86-12.13L47,117.35c-1.15,1.36-5.5,6-11.53,5.74-7-.27-16.08-13.75-20.74-26.62a.27.27,0,0,1,.33-.34,17.74,17.74,0,0,0,8.93,0c3.44-.81,4.41-6.85,4.67-9.41a.28.28,0,0,1,.23-.24.3.3,0,0,1,.29.17c.56,1.44,3.28,8.5,4.38,12.2,4.25-7,7.17-11.48,9.43-14.45.5-.65.9-1.22,1.25-1.72,1.32-1.88,1.92-2.73,4.13-2.73,2.61,0,9,.87,9.27.9l26.15.92s2.85.13,7.34.26l.52,0c4.08.11,4.51.13,6.38,3.59a34.91,34.91,0,0,1,1.69,3.71,19.94,19.94,0,0,0,2.16,4.28c.94,1.41,1.88,2.79,2.8,4.14,5.89,8.65,11,16.12,9.92,22.35-1,4.55-6.34,9.87-18.25,9.87a46,46,0,0,1-5.71-.37c5.24,7,6.29,9.85,6.33,10a.27.27,0,0,1-.13.33l-17.75,8.54a.28.28,0,0,1-.33-.08l-10.2-13.61L56.89,148.61a.25.25,0,0,1-.21.1Zm12-14.65a.24.24,0,0,1,.2.11l10.28,13.7,17.32-8.33c-.36-.82-1.88-3.9-6.54-10.12a.27.27,0,0,1,0-.3.29.29,0,0,1,.27-.13,44.73,44.73,0,0,0,6.26.46c11.59,0,16.79-5.09,17.72-9.44,1-6-4-13.4-9.83-22-.92-1.35-1.86-2.74-2.8-4.15a20.91,20.91,0,0,1-2.22-4.37,31.62,31.62,0,0,0-1.66-3.65c-1.73-3.2-1.88-3.2-5.93-3.32H91.1c-4.49-.13-7.31-.27-7.34-.27l-26.17-.92c-.07,0-6.66-.9-9.23-.9-1.93,0-2.41.68-3.69,2.51-.36.5-.76,1.07-1.26,1.73A176.43,176.43,0,0,0,33.7,99.61a.29.29,0,0,1-.27.13.28.28,0,0,1-.22-.2c-.82-3-3.14-9.09-4.15-11.73-.46,3.35-1.68,8-5,8.8a18.79,18.79,0,0,1-8.7.17c5.86,15.89,14.77,25.57,20.08,25.78,6.73.26,11.34-5.84,11.38-5.9a.25.25,0,0,1,.25-.1.26.26,0,0,1,.22.17l3.07,8.13a.27.27,0,0,1-.11.32,33.74,33.74,0,0,0-10.77,11.88c2.91,3.35,15.4,10.13,17.1,11.05l11.74-14a.26.26,0,0,1,.2-.1Z"/><g class="cls-10"><path class="cls-16" d="M15,96.38c4.72,13.05,13.65,26.18,20.5,26.44s11.61-6,11.61-6L50.15,125A33.71,33.71,0,0,0,39.2,137.1c2.94,3.6,17.48,11.34,17.48,11.34L68.56,134.3,79,148.18l17.74-8.54S95.65,136.7,90,129.23c15.48,2.13,23.09-3.6,24.29-9.21.72-4.28-1.53-9.19-5-14.7a7.38,7.38,0,0,0,.69,1.49c3.87,6.54,5.07,14.41-2.27,15-11.48.13-17.35-2.81-17.35-2.81l-1.93-12.37s8.29,4.36,11.71,6,4.59,5.53,4.59,5.53-1.38-4.81.07-4.3S109,118.3,109,118.3s-.17-3.77-4.59-7.22c-6.24-3.44-7.71-3-7.71-9.18S92.75,91.24,89.63,88s-2.62-5.09,3-5.41a7.09,7.09,0,0,1,3.41.56c-.93-.78-2.1-.77-4.89-.85-4.54-.13-7.34-.27-7.34-.27l-26.15-.91s-6.64-.9-9.26-.9c-2.15,0-2.65.82-4.07,2.83,1.32-1.06,2.5-1.86,3-1.72,1.29.39,2.45,5.16-.51,10.71s-5.42,9.28-6.45,11.86-2.58-1.67-3.87-2.45a4.92,4.92,0,0,1-2-3.49l-.94,1.55c-.29-1-.77-2.49-1.31-4,.1.65.22,1.31.39,2C34,103,32.42,108.63,35.26,105s2.71,11.22-.13,10.19-7.87-9.54-9.67-17.8a14.85,14.85,0,0,0,4.22-8.72c-.34-.9-.62-1.61-.76-2-.28,2.79-1.3,8.8-4.88,9.64A17.71,17.71,0,0,1,15,96.38Zm67.64,1.75c2.92-3.54,5.32-6.2,7.85-2,2.79,5.06,1.9,8.74,1.9,8.74a25,25,0,0,0-8.1-2.66l-.76,1S80.59,101.55,82.61,98.13ZM53.39,114c-1.91-2.61-2.91-7.1-2.21-12.13-2.91,9.15.5,12.16.5,12.16s-2.81,0-5-3.39c-3.89-5.92,2.82-16.93,2.82-16.93,2.82-5.2,4.75.15,8,4.31s1.63,5.05,3.11,8.76c-1.33,1.33.3,3.86.3,3.86s-.73-.24-.44,2.37C61,117.69,55.3,116.59,53.39,114Z"/></g><path class="cls-2" d="M70.64,87.73c-1,.58-5.57-7.87-5.57-7.87l.1-2.33.25-.11,11.86.71.58.24c0,.77,0,1.85-.07,2.21C77.72,81.16,72.51,86.65,70.64,87.73Z"/><path class="cls-3" d="M64.88,80a.2.2,0,0,1,0-.11l.09-2.33a.23.23,0,0,1,.14-.2l.26-.11h.1l11.85.71.07,0,.58.24a.21.21,0,0,1,.14.21c0,.81,0,1.86-.07,2.23-.09.73-5.43,6.26-7.26,7.31a.46.46,0,0,1-.23.06h0C69.26,88,65.6,81.3,64.88,80Zm12.35-1.61-11.77-.7-.08,0L65.3,79.8c2,3.82,4.56,7.74,5.22,7.74h0c1.9-1.1,6.89-6.44,7-7,0-.26.05-1,.06-2Z"/><path class="cls-7" d="M70.64,87.73c-1,.58-5.57-7.87-5.57-7.87l.1-2.33.25-.11,11.86.71.58.24c0,.77,0,1.85-.07,2.21C77.72,81.16,72.51,86.65,70.64,87.73Z"/><path class="cls-7" d="M70.64,87.73c-1,.58-5.57-7.87-5.57-7.87l.1-2.33.25-.11,11.86.71.58.24c0,.77,0,1.85-.07,2.21C77.72,81.16,72.51,86.65,70.64,87.73Z"/><path class="cls-17" d="M60.52,87.36l-4.28-6.14,8.93-3.69-.1,2.33s4.55,8.45,5.57,7.87c1.87-1.08,7.08-6.57,7.15-7.15,0-.36.06-1.44.07-2.21,1.69.7,6.55,2.76,7.29,3.51-3.61,4.64-3.87,5.29-3.87,5.29l3.92,5.56S71.49,107.61,69.09,113c-3.6-9.34-13.21-21.88-13.21-21.88Z"/><path class="cls-18" d="M68.84,113.05c-3.54-9.2-13.07-21.7-13.17-21.82L55.51,91l4.65-3.71L55.83,81.1l9.62-4-.11,2.67c2,3.72,4.55,7.7,5.16,7.71,1.85-1.07,6.84-6.4,7-7,0-.27.06-1,.07-2.18V78l.37.16c2.44,1,6.64,2.82,7.38,3.56l.17.16-.15.19c-2.79,3.59-3.57,4.77-3.77,5.11l4,5.6-.15.16c-.13.15-13.7,14.91-16,20.15l-.27.58ZM81,87.2l0-.13c0-.07.36-.79,3.75-5.15a51.53,51.53,0,0,0-6.66-3.15c0,.73,0,1.53-.07,1.84-.09.74-5.44,6.29-7.28,7.35a.55.55,0,0,1-.25.07c-1.25,0-4.67-6.16-5.68-8l0-.06.08-2-8.23,3.41,4.23,6.08-4.63,3.69c1.24,1.65,9.41,12.64,12.87,21.18C72,106.86,83.35,94.35,84.85,92.71Z"/><g class="cls-5"><path class="cls-19" d="M59.17,85.42c1.86-2,3.84-4.28,3.37-4.75s-3.53.59-5.65,1.49l-.65-.94,8.93-3.69-.1,2.33s4.55,8.45,5.57,7.87c1.87-1.08,7.08-6.57,7.15-7.15,0-.36.06-1.44.07-2.21,1.69.7,6.55,2.76,7.29,3.51L85,82.1c-1.87-.63-4.93-1.47-5.82-.58-1,1,.23,2.39,2.58,4.92a6.42,6.42,0,0,0-.46.73L84.7,92A10.81,10.81,0,0,0,82,90.44c-.77-.13-.15,3.28.33,5.5-4.16,4.68-11.52,13.23-13.22,17-3.6-9.34-13.21-21.88-13.21-21.88l4.64-3.71Z"/></g><path class="cls-2" d="M100.1,45.58S103.25,42,106,47.67c1.93,5.45-3.68,9-5.72,7.73A80.43,80.43,0,0,1,100.1,45.58Z"/><path class="cls-3" d="M101.12,55.87a2.16,2.16,0,0,1-1-.28.23.23,0,0,1-.11-.17,85.77,85.77,0,0,1-.19-9.85.25.25,0,0,1,.06-.14,3.64,3.64,0,0,1,2.65-1.17c1.37.08,2.59,1.19,3.63,3.31a6.12,6.12,0,0,1-.8,5.92A5.57,5.57,0,0,1,101.12,55.87Zm-.62-.61a1.59,1.59,0,0,0,.64.16,5.14,5.14,0,0,0,3.91-2.19,5.7,5.7,0,0,0,.75-5.49c-1-1.94-2-3-3.25-3a3.13,3.13,0,0,0-2.23,1A82.36,82.36,0,0,0,100.5,55.26Z"/><path class="cls-7" d="M100.1,45.58S103.25,42,106,47.67c1.93,5.45-3.68,9-5.72,7.73A80.43,80.43,0,0,1,100.1,45.58Z"/><path class="cls-2" d="M45.25,44.73s-3-3.69-6,1.82c-2.17,5.35,3.26,9.12,5.36,8A82.48,82.48,0,0,0,45.25,44.73Z"/><path class="cls-3" d="M43.55,55h0a5.79,5.79,0,0,1-4.1-2.76A6.14,6.14,0,0,1,39,46.46q1.8-3.28,4-3.16a3.67,3.67,0,0,1,2.4,1.29.24.24,0,0,1,0,.14,81.76,81.76,0,0,1-.65,9.84.21.21,0,0,1-.11.16A2.18,2.18,0,0,1,43.55,55ZM43,43.75c-1.27-.08-2.46.9-3.56,2.91A5.6,5.6,0,0,0,39.83,52a5.27,5.27,0,0,0,3.74,2.54h0a1.8,1.8,0,0,0,.83-.12A81,81,0,0,0,45,44.81,3.21,3.21,0,0,0,43,43.75Z"/><path class="cls-7" d="M45.25,44.73s-3-3.69-6,1.82c-2.17,5.35,3.26,9.12,5.36,8A82.48,82.48,0,0,0,45.25,44.73Z"/><path class="cls-2" d="M44.65,34.27s1.05,11.52,0,20.27S43.49,66,53.94,73.14c11.69,7.11,20.93,9.08,37.3-1,7.18-3.76,9.36-12.1,9-21.87-.41-9-.45-10.59-.45-10.59a24.74,24.74,0,0,1-9.81-12c-1.73,3.16-.65,11-.65,11s-6.72-6-6.64-14.82c-1.84,5.42-7.06,9.3-11.15,10.57C75.16,32.25,77.67,26,77.67,26s-5.92,12.66-22.15,9.83c6.92-2.35,11.61-9.38,11.61-9.38S59.62,35.87,44.65,34.27Z"/><path class="cls-20" d="M64.28,70.36s1.18,5.4,6.63,5.66,7.87-5.57,8.33-7.85C71.8,81.68,64.28,70.36,64.28,70.36Z"/><path class="cls-3" d="M69.93,79.28c-4.92-.3-9.73-2.07-16.11-6-10.41-7.1-10.55-10-9.44-18.82,1.09-8.63.06-20.1,0-20.21a.24.24,0,0,1,.25-.25c.51.06,1,.1,1.52.13C59.86,35,66.88,26.38,67,26.29a.22.22,0,0,1,.31,0,.21.21,0,0,1,0,.3c0,.07-4.44,6.58-10.91,9.17.76.11,1.52.19,2.26.24h0a19.53,19.53,0,0,0,18.8-10.07.22.22,0,0,1,.29-.11.23.23,0,0,1,.12.29c-.09.22-2,5-5,7.63,3.74-1.62,8-5.14,9.57-9.9a.23.23,0,0,1,.44.08c-.07,7.28,4.63,12.68,6.13,14.21-.22-2-.73-7.8.75-10.49a.26.26,0,0,1,.21-.11.22.22,0,0,1,.19.14,24.76,24.76,0,0,0,9.71,11.86.21.21,0,0,1,.12.18s0,1.72.44,10.59c.41,11.26-2.66,18.69-9.12,22.08C83.06,77.44,76.25,79.65,69.93,79.28Zm-25-44.76c.15,1.79.92,12.11-.08,20C43.71,63.39,43.84,66,54.06,73c6.3,3.83,11.06,5.58,15.89,5.87,6.23.37,13-1.82,21.18-6.88,6.31-3.31,9.3-10.6,8.89-21.68-.34-7.62-.42-9.94-.43-10.46A25.2,25.2,0,0,1,90,28.27c-1.37,3.3-.41,10.31-.4,10.39a.25.25,0,0,1-.12.23.23.23,0,0,1-.25,0C89.13,38.8,83,33.21,82.5,25a18.55,18.55,0,0,1-10.88,9.66.23.23,0,0,1-.18-.41A14.94,14.94,0,0,0,75.93,29a19.94,19.94,0,0,1-17.29,7.4h0A27.13,27.13,0,0,1,55.48,36a.22.22,0,0,1-.18-.2.22.22,0,0,1,.15-.23c4.1-1.4,7.43-4.49,9.44-6.72a26.84,26.84,0,0,1-18.72,5.75C45.75,34.6,45.33,34.57,44.9,34.52Z"/><g class="cls-5"><path class="cls-2" d="M100.25,50.27c-.41-9-.45-10.59-.45-10.59a24.74,24.74,0,0,1-9.81-12c-1.73,3.16-.65,11-.65,11s-6.72-6-6.64-14.82c-1.84,5.42-7.06,9.3-11.15,10.57C75.16,32.25,77.67,26,77.67,26s-5.92,12.66-22.15,9.83c6.92-2.35,11.61-9.38,11.61-9.38s-7.51,9.44-22.48,7.84c0,0,1.05,11.52,0,20.27S43.49,66,53.94,73.14c11.69,7.11,20.93,9.08,37.3-1C98.42,68.38,100.6,60,100.25,50.27Zm-50,17.62c-7.22-6.31-4.48-12.29-4-15.34.18-12,6.65-10.57,6.14-8.73a21.22,21.22,0,0,0-1.21,9l-.73,1a7.79,7.79,0,0,1,7.59,5c.08-1.2,1.64-2.84,3.17-1.55,2.91,2.84,5.58,5,8.77,5.29,3.59.34,4.68-4.36,4.68-4.36-2.5,1.59-4.78,1.72-6.6.81s-1-3,.32-5.46.94-2.35-2.61-7.77-5.3-7.54-5.3-7.54c3.08-.21,8.83-2.41,8.83-2.41a4.67,4.67,0,0,1-2,1.88c6.42,0,12.82-8.73,15.28-5.11s2.09,5.34-.3,7.21c-4.56,2.53-6.14,9-5.39,7.56s2.21-3.48,1.44.49C77.37,57.33,83,57,83,57l.17,1.61c2.11-4,8.37-3.65,8.37-3.65a5.2,5.2,0,0,0-1.8-1.17c2-7.5,4.13-11.12,6.88-10.15s1.25,12.77.37,18.6S89.54,71.19,83.74,74C68.05,81.64,59.3,75.78,50.28,67.89Z"/></g><path class="cls-21" d="M61.26,63.44s9.17,3.67,18.74-.09c1.62-.63-.47,1.44-4,2.94s-9.77,2.8-14.72-1.62C60.67,64,60.81,63.3,61.26,63.44Z"/><path class="cls-22" d="M62.84,65.69s2.26,6.2,7.6,6.38c5.08,0,8.49-2.75,9.79-8.06-.1,3.91-3.34,11.25-9.46,10.84C65.88,74.52,63,69.76,62.84,65.69Z"/><path class="cls-23" d="M88.22,48s-2.2-6.58-7.15-1.43C81.82,44,86.81,41.24,88.22,48Z"/><path class="cls-24" d="M88.17,54.28c.18,0,.58-.85.65-1a3.88,3.88,0,0,0,.34-1.16,11.79,11.79,0,0,0,0-2.72c-.48-2.68-2.26-6.15-5.58-5.09A7.4,7.4,0,0,0,81,46.08,10.55,10.55,0,0,0,78.84,51a7.51,7.51,0,0,0,.38,2.64,7.08,7.08,0,0,1,.6-4.32c-.15,1-1,2.81,0,5a4.31,4.31,0,0,0,4.3,2.29,2.4,2.4,0,0,0-.27,1.61c1.5-4,6.28-3.54,6.28-3.54A4.13,4.13,0,0,0,88.17,54.28Z"/><path class="cls-25" d="M88.59,51.51a5,5,0,0,1-5.5,4.73c-2.57-.43-3.69-3-3.16-6s2.52-5.36,4.75-5.21S88.86,48.36,88.59,51.51Z"/><path class="cls-26" d="M88.34,51.4a5.1,5.1,0,0,1-4.53,4.74c-3.66.34-4-3.71-3.71-5.86s1.53-4.63,3.92-5.12c3.28-.68,4.44,4,4.32,6.24,0,.13.48.37.49.23.18-2.55-1.26-6.19-4-6.72-2.92-.57-4.67,2.94-5.13,5.22s.06,5.31,3.12,6.18c3.42,1,5.66-2.31,6-4.68C88.85,51.5,88.36,51.25,88.34,51.4Z"/><g class="cls-5"><path class="cls-27" d="M88.59,51.51c.27-3.15-1.69-6.36-3.91-6.52s-4.22,2.21-4.75,5.21.59,5.61,3.16,6A5,5,0,0,0,88.59,51.51ZM83,55.2c-2.26-.38-3-2.63-2.55-5.31s2.24-4.75,4.14-4.65S88,48.16,87.86,51A4.38,4.38,0,0,1,83,55.2Z"/></g><path class="cls-26" d="M79.39,50.07l0-.18a4,4,0,0,1,.09-.48,7.73,7.73,0,0,1,.24-.74c.06-.14.11-.29.19-.45s.15-.32.24-.48.19-.34.3-.51.11-.17.17-.27l.18-.26a7.06,7.06,0,0,1,.87-1,3.2,3.2,0,0,1,1.23-.76,4.21,4.21,0,0,1,1.58-.14l.38.05.34.09a4.43,4.43,0,0,1,.69.26A4,4,0,0,1,87.1,46a5.59,5.59,0,0,1,.84,1.39,9.92,9.92,0,0,1,.49,1.45,6.44,6.44,0,0,1,.2,1.18,5.66,5.66,0,0,1,0,.79,4.35,4.35,0,0,1,0,.51l0,.18s0-.26,0-.7a5.48,5.48,0,0,0-.11-.79,5.13,5.13,0,0,0-.12-.51c0-.2-.11-.41-.18-.62a9.59,9.59,0,0,0-.53-1.39,4.92,4.92,0,0,0-.82-1.22,3.47,3.47,0,0,0-1.09-.78,4.07,4.07,0,0,0-.61-.24l-.35-.08-.32,0a4.26,4.26,0,0,0-1.41.14,3,3,0,0,0-1.17.65,6.35,6.35,0,0,0-.86.94l-.18.24c0,.08-.11.16-.16.25a4.1,4.1,0,0,0-.3.47c-.1.16-.18.32-.26.46s-.15.28-.21.42-.22.51-.29.7a4,4,0,0,0-.15.48Z"/><path class="cls-28" d="M80.82,46.74s1.6-2.76,4.23-2.19A5,5,0,0,1,88.46,48s1,2,2.45.57a2,2,0,0,1-2.24,1.22s-.76-4.28-3.94-4.88A4,4,0,0,0,80.82,46.74Z"/><path class="cls-26" d="M84.17,57.57a2.65,2.65,0,0,1,.37-.85,5.08,5.08,0,0,1,4.55-2l.27,0A7.6,7.6,0,0,0,84.17,57.57Z"/><path class="cls-28" d="M89.9,47.11s-1.12.71-1.93.3a4.61,4.61,0,0,0,.39.75A1.4,1.4,0,0,0,89.9,47.11Z"/><path class="cls-28" d="M88.77,45.53s-.81.86-1.64.65a4.66,4.66,0,0,0,.54.6S88.86,46.64,88.77,45.53Z"/><path class="cls-28" d="M88.55,48.75s-3.68-7.27-8.44-.57C82.17,43.88,86.8,42.48,88.55,48.75Z"/><path class="cls-23" d="M54,47.26S56.86,41,61,46.67C60.62,44,56.13,40.69,54,47.26Z"/><path class="cls-24" d="M53.2,53.61c-.17,0-.47-.9-.53-1.06a4,4,0,0,1-.2-1.19,11.76,11.76,0,0,1,.35-2.7c.78-2.61,3-5.84,6.13-4.4a7.26,7.26,0,0,1,2.34,2.06,10.56,10.56,0,0,1,1.56,5.13A7.46,7.46,0,0,1,62.17,54a7,7,0,0,0-.09-4.37c0,1.06.69,2.92-.6,5a4.31,4.31,0,0,1-4.54,1.76A2.42,2.42,0,0,1,57,58c-1-4.12-5.82-4.26-5.82-4.26A4.1,4.1,0,0,1,53.2,53.61Z"/><path class="cls-25" d="M53.12,50.82A4.93,4.93,0,0,0,58,56.16c2.6-.12,4-2.57,3.85-5.62s-1.88-5.62-4.1-5.73S53.21,47.66,53.12,50.82Z"/><path class="cls-26" d="M53.37,50.74A5.11,5.11,0,0,0,57.31,56c3.6.76,4.44-3.21,4.37-5.39s-1-4.78-3.28-5.55c-3.18-1-4.88,3.44-5,5.7,0,.13-.52.31-.51.16.12-2.55,2-6,4.72-6.2,3-.22,4.28,3.47,4.47,5.79s-.68,5.26-3.83,5.77c-3.51.57-5.35-3-5.36-5.36C52.86,50.77,53.37,50.58,53.37,50.74Z"/><g class="cls-5"><path class="cls-27" d="M58,56.16c2.6-.12,4-2.57,3.85-5.62s-1.88-5.62-4.1-5.73-4.56,2.85-4.65,6A4.93,4.93,0,0,0,58,56.16Zm-4.11-5.8c.16-2.8,2-5.42,3.91-5.3s3.44,2.39,3.57,5.11-.87,4.86-3.16,5A4.37,4.37,0,0,1,53.91,50.36Z"/></g><path class="cls-26" d="M62.42,50.47s0-.06,0-.18a3.38,3.38,0,0,0,0-.48,5.72,5.72,0,0,0-.15-.77,3.36,3.36,0,0,0-.13-.47c-.05-.16-.11-.33-.18-.5s-.15-.36-.24-.54-.09-.19-.13-.29-.1-.19-.16-.28a6.72,6.72,0,0,0-.74-1.14,3.23,3.23,0,0,0-1.12-.9A4.24,4.24,0,0,0,58,44.59h-.39l-.34,0a4.09,4.09,0,0,0-.71.17,3.73,3.73,0,0,0-1.27.72,4.93,4.93,0,0,0-1,1.27,7.8,7.8,0,0,0-.66,1.38,5.78,5.78,0,0,0-.34,1.15,6,6,0,0,0-.13.78c0,.22,0,.4,0,.52a1.41,1.41,0,0,0,0,.18s0-.26.1-.7a5.73,5.73,0,0,1,.21-.77c0-.15.11-.29.18-.48s.15-.4.24-.61a12,12,0,0,1,.7-1.31,5,5,0,0,1,1-1.11,3.72,3.72,0,0,1,1.18-.66,4.8,4.8,0,0,1,.63-.15l.36,0c.09,0,.21,0,.32,0a4.05,4.05,0,0,1,1.39.31,2.86,2.86,0,0,1,1.08.78,6.52,6.52,0,0,1,.74,1l.15.26c0,.09.1.18.14.27s.17.34.24.51.14.33.2.48.12.3.16.44.15.53.21.74.07.38.09.48Z"/><path class="cls-28" d="M61.39,47s-1.27-2.94-3.94-2.68a5,5,0,0,0-3.79,3s-1.2,1.83-2.5.27a2,2,0,0,0,2.08,1.48s1.26-4.16,4.49-4.39A4,4,0,0,1,61.39,47Z"/><path class="cls-26" d="M56.78,57.35a2.54,2.54,0,0,0-.27-.89A5.07,5.07,0,0,0,52.23,54H52A7.55,7.55,0,0,1,56.78,57.35Z"/><path class="cls-28" d="M53.73,47.52s4.22-6.34,7.89.41C60.19,43.71,56,41.9,53.73,47.52Z"/><path class="cls-29" d="M55.1,50.12c-.34,2.29.4,4.24,2.09,4.63s3.42-1,3.69-3.31-.88-4.67-2.41-4.93S55.44,47.82,55.1,50.12Z"/><g class="cls-5"><path class="cls-30" d="M57.19,54.75c1.7.39,3.42-1,3.69-3.31s-.88-4.67-2.41-4.93-3,1.31-3.37,3.61S55.5,54.36,57.19,54.75Zm-1.86-4.84c.31-2.11,1.72-3.55,3.14-3.29s2.47,2.39,2.24,4.53-1.85,3.41-3.44,3.05S55,52,55.33,49.91Z"/></g><g class="cls-31"><path class="cls-29" d="M57.19,54.75c1.7.39,3.42-1,3.69-3.31s-.88-4.67-2.41-4.93-3,1.31-3.37,3.61S55.5,54.36,57.19,54.75Zm-.86-6.43c.67-.54.68-.12.37.4s-1.26,2.27-.56,3.62c.34.64.91,1,.91,1.17s-1.33.07-1.68-1.25A4.48,4.48,0,0,1,56.33,48.32Z"/></g><g class="cls-31"><path class="cls-29" d="M56,50.62c.24-1.56,1.33-2.57,2.44-2.29l.22.06a.75.75,0,0,1,.65-.37c.5,0,.93.71,1,1.47a1.76,1.76,0,0,1-.17.86,3.93,3.93,0,0,1,.05,1.24,2.29,2.29,0,0,1-2.62,2.21C56.31,53.52,55.73,52.17,56,50.62Z"/></g><path class="cls-32" d="M56.51,50.68a2,2,0,0,0,1.18,2.41,1.73,1.73,0,0,0,2-1.66A2.16,2.16,0,0,0,58.37,49C57.52,48.76,56.7,49.52,56.51,50.68Z"/><path class="cls-33" d="M57.74,49.35c.31,1.13,1.31,2,2.09,1.83s1.08-1.27.73-2.37S59.37,46.73,58.62,47A1.87,1.87,0,0,0,57.74,49.35Z"/><path class="cls-17" d="M58.32,49.24c.25.87,1,1.52,1.55,1.39s.79-1,.52-1.79-.91-1.56-1.47-1.41S58.07,48.38,58.32,49.24Z"/><g class="cls-34"><path class="cls-35" d="M55.93,49.59c-.23.9-.49,2.7.73,3.58.71.51-1.16.24-1.28-1.76C55.28,49.87,56.23,48.45,55.93,49.59Z"/></g><g class="cls-34"><path class="cls-35" d="M56.27,48.62c.19.07,0,.56-.26.45S56,48.52,56.27,48.62Z"/></g><path class="cls-36" d="M57.39,64.56c-2,2.75-4.66,2-6.85.11-3.86-3.43-5-7.24-3.27-9.11s4.8-2.57,8.16,0S59.69,61.49,57.39,64.56Z"/><path class="cls-17" d="M52.6,55.74c-.26.2,0,.73.6,1.16s1.3.59,1.58.38,0-.72-.6-1.15S52.87,55.52,52.6,55.74Z"/><path class="cls-17" d="M50.8,55.4c-.06.14.09.34.36.44s.51.06.57-.08-.1-.35-.35-.45S50.87,55.25,50.8,55.4Z"/><path class="cls-37" d="M83.24,64.67c1.71,3,4.38,2.58,6.79.91,4.23-2.95,5.8-6.6,4.32-8.66s-4.46-3.11-8.1-1S81.32,61.34,83.24,64.67Z"/><path class="cls-17" d="M89,56.47c.23.23-.09.72-.73,1.08s-1.37.44-1.61.2.09-.72.73-1.08S88.79,56.22,89,56.47Z"/><path class="cls-17" d="M90.86,56.34c0,.16-.13.33-.41.4s-.52,0-.56-.15.14-.33.41-.4S90.81,56.19,90.86,56.34Z"/><path class="cls-28" d="M52.33,46.29s1,.84,1.88.53a3.87,3.87,0,0,1-.48.7S52.42,47.49,52.33,46.29Z"/><path class="cls-28" d="M53.64,44.86s.7,1,1.55.84a4.52,4.52,0,0,1-.61.53A1.2,1.2,0,0,1,53.64,44.86Z"/><path class="cls-29" d="M81.2,50.26c-.34,2.29.39,4.24,2.09,4.63s3.41-1,3.69-3.31-.89-4.67-2.41-4.93S81.54,48,81.2,50.26Z"/><g class="cls-5"><path class="cls-30" d="M83.29,54.89c1.7.39,3.41-1,3.69-3.31s-.89-4.67-2.41-4.93-3,1.31-3.37,3.61S81.59,54.5,83.29,54.89Zm-1.86-4.84c.31-2.12,1.72-3.55,3.13-3.3s2.48,2.4,2.24,4.54-1.84,3.41-3.44,3S81.11,52.16,81.43,50.05Z"/></g><g class="cls-31"><path class="cls-29" d="M83.29,54.89c1.7.39,3.41-1,3.69-3.31s-.89-4.67-2.41-4.93-3,1.31-3.37,3.61S81.59,54.5,83.29,54.89Zm-.86-6.43c.67-.54.67-.12.37.4s-1.27,2.27-.56,3.62c.34.64.91,1,.91,1.17s-1.34.07-1.68-1.26A4.43,4.43,0,0,1,82.43,48.46Z"/></g><g class="cls-31"><path class="cls-29" d="M82.07,50.75c.25-1.55,1.33-2.56,2.44-2.29l.23.07a.73.73,0,0,1,.65-.37c.49,0,.92.7,1,1.47a1.82,1.82,0,0,1-.18.86,3.42,3.42,0,0,1,0,1.24,2.29,2.29,0,0,1-2.61,2.21C82.41,53.66,81.83,52.31,82.07,50.75Z"/></g><path class="cls-32" d="M82.61,50.82a2,2,0,0,0,1.18,2.41,1.72,1.72,0,0,0,2-1.66,2.15,2.15,0,0,0-1.29-2.46C83.62,48.9,82.8,49.66,82.61,50.82Z"/><path class="cls-33" d="M83.83,49.48c.31,1.14,1.31,2,2.1,1.84S87,50.05,86.65,49s-1.18-2.08-1.93-1.86A1.89,1.89,0,0,0,83.83,49.48Z"/><path class="cls-17" d="M84.41,49.38c.25.86,1,1.51,1.56,1.39s.78-1,.52-1.79-.91-1.56-1.47-1.41S84.17,48.52,84.41,49.38Z"/><g class="cls-34"><path class="cls-35" d="M82,49.73c-.23.9-.5,2.7.72,3.58.71.51-1.15.23-1.27-1.76C81.38,50,82.32,48.59,82,49.73Z"/></g><g class="cls-34"><path class="cls-35" d="M82.36,48.76c.2.07,0,.55-.25.44S82.09,48.66,82.36,48.76Z"/></g><path class="cls-20" d="M52.31,42.79s4.82-5.62,10.75,1.94C61.16,38.83,56,36.4,52.31,42.79Z"/><path class="cls-20" d="M78.05,45.19s4.62-7.39,11.62-.65C87.79,40,81.56,37,78.05,45.19Z"/><path class="cls-9" d="M52.35,42.24s4.81-5.62,10.74,1.93C61.2,38.27,56,35.84,52.35,42.24Z"/><path class="cls-9" d="M78.08,44.63S82.7,37.24,89.7,44C87.82,39.43,81.59,36.46,78.08,44.63Z"/><path class="cls-26" d="M67.76,48.92s.19.2.49.58c.15.19.33.42.53.7a5.39,5.39,0,0,1,.59,1l.06.16a.68.68,0,0,1,0,.21.28.28,0,0,1,0,.08v0l0,.08-.05.16c-.08.21-.14.43-.24.65-.18.44-.37.92-.58,1.4-.42.94-.87,2-1.31,3,0,.11-.13.27-.16.35a2.54,2.54,0,0,0-.11.38,1.79,1.79,0,0,0,0,.33,1,1,0,0,0,.07.34,2.08,2.08,0,0,0,.87,1.09,3.68,3.68,0,0,0,1.29.55l.33.08.32,0a3.48,3.48,0,0,0,.63,0c.41,0,.78,0,1.12,0s.62-.07.85-.12l.75-.14-.72.24c-.23.08-.53.13-.86.22a7.18,7.18,0,0,1-1.14.13,4.84,4.84,0,0,1-.66,0l-.35,0-.35-.06a3.71,3.71,0,0,1-1.47-.54,2.49,2.49,0,0,1-1.1-1.32,1.46,1.46,0,0,1-.1-.46,2,2,0,0,1,0-.49,2.1,2.1,0,0,1,.12-.42,4.27,4.27,0,0,1,.17-.41c.46-1,.92-2,1.37-2.94l.65-1.32c.11-.21.18-.43.28-.64l.06-.15,0-.08,0,0s0,0,0,0a.15.15,0,0,0,0-.11.31.31,0,0,0,0-.13,6.52,6.52,0,0,0-.48-1c-.16-.29-.32-.54-.45-.75Z"/><path class="cls-38" d="M63.09,66s7.76,4.47,17.14-2c-.78,3.29-3.16,8.19-9.79,8.06C65.83,71.71,64.48,68.91,63.09,66Z"/><path class="cls-17" d="M71.1,69.76a10.57,10.57,0,0,0,7.76-4.89,16.75,16.75,0,0,1-14.37,1.72C65.5,67.89,67.77,70.18,71.1,69.76Z"/><path class="cls-26" d="M70.43,72.2h0C65.71,71.83,64.32,68.88,63,66a.14.14,0,0,1,0-.15.14.14,0,0,1,.16,0,14.06,14.06,0,0,0,5.64,1.46A17.94,17.94,0,0,0,80.15,63.9a.12.12,0,0,1,.15,0,.13.13,0,0,1,.06.14c-.73,3.1-3,8.29-9.92,8.16Zm-7.05-5.93c1.32,2.78,2.69,5.32,7.07,5.67,2.85,0,7.83-.88,9.57-7.63a18,18,0,0,1-11.23,3.28A15.1,15.1,0,0,1,63.38,66.27Z"/><g class="cls-5"><path class="cls-39" d="M64.49,66.59a9.67,9.67,0,0,0,2,2c0-.37.33-.63,1.13-.41,1.89.52,4.4.58,7.88-1,1-.48,1.58-.56,1.85-.45a14.81,14.81,0,0,0,1.47-1.8A16.75,16.75,0,0,1,64.49,66.59Z"/></g><path class="cls-40" d="M44,48.4c-.53-1-2.8-2.1-3.08-.46,0,.1.16.07.18,0,.25-.94,1.19-.48,1.74-.1a2.34,2.34,0,0,1,.88,1.26,4.48,4.48,0,0,1,.17.7s-.06,0-.07,0c-.16.16-.24.36-.39.53a1.18,1.18,0,0,1-.89.29,1.6,1.6,0,0,1-1.41-.95c0-.08-.13,0-.12,0A1.58,1.58,0,0,0,42.65,51a1.77,1.77,0,0,0,1.28-.67,2.37,2.37,0,0,1-.79,2.1c-.15.1-.14.35.1.32C45.08,52.44,44.62,49.54,44,48.4Z"/><path class="cls-40" d="M101.18,49.3c.58-1,2.9-2,3.1-.31,0,.09-.16,0-.17,0-.22-.95-1.18-.53-1.75-.18a2.35,2.35,0,0,0-.93,1.22,4.63,4.63,0,0,0-.2.69l.07,0c.15.17.21.38.36.55a1.17,1.17,0,0,0,.88.33,1.59,1.59,0,0,0,1.45-.88c0-.07.13,0,.12,0a1.59,1.59,0,0,1-1.71,1.15,1.8,1.8,0,0,1-1.25-.73,2.32,2.32,0,0,0,.7,2.13c.14.11.12.36-.11.32C99.91,53.29,100.5,50.41,101.18,49.3Z"/><path class="cls-15" d="M84.77,103.23s4.08,12.56,3.2,16.09a57.64,57.64,0,0,1-3.75,9.15S80.81,112.16,84.77,103.23Z"/><path class="cls-15" d="M84,128.52c0-.16-3.39-16.49.57-25.4l.28-.63.22.66c.16.52,4.09,12.68,3.2,16.24a57.25,57.25,0,0,1-3.77,9.2l-.34.67Zm.37-.88a52.75,52.75,0,0,0,3.38-8.38c.73-3-2.14-12.57-3-15.25C81.74,111.74,83.74,124.39,84.33,127.64Z"/><g class="cls-5"><path class="cls-16" d="M48.08,92.21s-.2.36-.53,1-.78,1.55-1.26,2.67c-.25.56-.5,1.17-.76,1.82S45,99,44.76,99.76c-.11.37-.23.74-.35,1.11L44.08,102c-.09.4-.19.79-.28,1.19s-.15.81-.23,1.21-.09.82-.13,1.23,0,.83,0,1.24c0,.2,0,.4.05.6l.09.6c.05.41.15.78.23,1.16a25.9,25.9,0,0,0,1.39,4,29.41,29.41,0,0,0,1.31,2.64c.35.63.57,1,.57,1l-.48-1c-.29-.65-.69-1.59-1.12-2.72-.22-.57-.45-1.18-.65-1.85s-.39-1.36-.57-2.09c-.07-.37-.17-.75-.21-1.12,0-.19,0-.38-.08-.57l0-.6a11.47,11.47,0,0,1,0-1.17c0-.4.08-.79.13-1.19l.21-1.18.27-1.17.3-1.14c.11-.38.22-.74.33-1.11.24-.72.46-1.42.69-2.07s.46-1.28.68-1.85c.43-1.13.8-2.08,1.08-2.73Z"/><path class="cls-16" d="M90,91.66l.36.6c.23.39.53.95.9,1.61s.74,1.47,1.12,2.33c.2.44.38.89.56,1.35s.34.94.48,1.42.28,1,.38,1.44.18,1,.23,1.42a12.73,12.73,0,0,1,.07,1.35l0,.62c0,.2-.06.39-.08.58a9.36,9.36,0,0,1-.23,1,6.91,6.91,0,0,1-.27.75c-.19.4-.29.63-.29.63l.1-.15c.06-.1.17-.24.29-.44s.25-.43.36-.73a5.33,5.33,0,0,0,.33-1c0-.19.08-.39.13-.59s0-.43.08-.65a9.32,9.32,0,0,0,0-1.4,11.08,11.08,0,0,0-.2-1.49,13.67,13.67,0,0,0-.37-1.5A19,19,0,0,0,92.76,96a23.08,23.08,0,0,0-1.3-2.29c-.41-.65-.8-1.16-1.06-1.51S90,91.66,90,91.66Z"/><path class="cls-16" d="M108.13,116.79a7.12,7.12,0,0,0-.59-1.05c-.21-.32-.48-.7-.82-1.12a10.16,10.16,0,0,0-1.27-1.28,8.71,8.71,0,0,0-1.77-1.2c-.7-.35-1.42-.63-2.18-1s-1.5-.67-2.26-1.08-1.53-.79-2.29-1.21c-1.53-.83-3-1.69-4.44-2.53l-2-1.21a16.85,16.85,0,0,0-1.89-1,7.78,7.78,0,0,0-.89-.35c-.29-.08-.55-.19-.82-.25l-.72-.17-.63-.11a7.54,7.54,0,0,0-.89-.08h-.31l.31,0c.21,0,.5.08.87.15l.61.15.71.22c.25.08.51.2.78.3a8.91,8.91,0,0,1,.85.38,16.39,16.39,0,0,1,1.83,1c.61.4,1.28.85,2,1.27,1.39.87,2.9,1.75,4.43,2.6.77.42,1.54.82,2.32,1.2s1.56.73,2.31,1.06,1.51.57,2.17.86a9.09,9.09,0,0,1,1.76,1.09,12.19,12.19,0,0,1,2.2,2.23A8.29,8.29,0,0,1,108.13,116.79Z"/><path class="cls-16" d="M104.5,116.79a4.49,4.49,0,0,0-.08-1.1,6.46,6.46,0,0,0-.89-2.27c-.12-.19-.25-.36-.39-.54a4,4,0,0,0-.43-.48,4.2,4.2,0,0,0-.44-.41,2.52,2.52,0,0,0-.44-.31,3.73,3.73,0,0,0-.69-.39l-.28-.12.22.21.25.22c.1.09.2.2.31.31a3.11,3.11,0,0,1,.35.37c.12.14.26.28.37.43a9.46,9.46,0,0,1,.72,1,11.65,11.65,0,0,1,.61,1.07c.17.36.32.69.44,1C104.37,116.36,104.5,116.79,104.5,116.79Z"/><path class="cls-16" d="M90,129.23s-.36-.12-.9-.24-1.26-.23-2-.33c-.36,0-.72-.08-1.07-.1s-.65-.07-.93-.08c-.55,0-.93,0-.93,0a8.36,8.36,0,0,0,.87.31c.27.08.59.18.93.25l1.07.16.55.06c.17,0,.35,0,.53,0h.94A7.22,7.22,0,0,0,90,129.23Z"/><path class="cls-16" d="M51.21,102.68s-.14.4-.33,1.13a22.3,22.3,0,0,0-.63,3,15.43,15.43,0,0,0-.12,2.1,5.45,5.45,0,0,0,.47,2.35c.73,1.42,1.48,3,2.21,4.51s1.47,3.09,2.09,4.57c.3.74.6,1.45.84,2.14a8.8,8.8,0,0,1,.52,2v.32l0,.11-.08.44c-.05.29-.1.57-.14.82-.14.5-.27.93-.38,1.29s-.24.62-.31.81l-.12.28.15-.27c.08-.18.21-.45.38-.78s.3-.79.47-1.29c.07-.25.13-.52.2-.8s.07-.29.11-.44l0-.12a.62.62,0,0,0,0-.13v-.26a9.43,9.43,0,0,0-.45-2.06c-.22-.71-.49-1.45-.79-2.2-.6-1.49-1.3-3.06-2-4.62s-1.53-3.08-2.28-4.5a5.73,5.73,0,0,1-.5-2.15,15.31,15.31,0,0,1,0-2,27.65,27.65,0,0,1,.43-3.06C51.12,103.09,51.21,102.68,51.21,102.68Z"/><path class="cls-16" d="M83,121a3.25,3.25,0,0,0-.27.36c-.16.24-.4.58-.65,1a11.93,11.93,0,0,0-.76,1.52,6.51,6.51,0,0,0-.32.91,3.83,3.83,0,0,0-.17,1,2.64,2.64,0,0,0,0,.55c.06.19.11.32.16.48.1.31.21.6.31.89.25.58.49,1.11.72,1.55s.43.8.57,1.05l.24.39s0-.16-.15-.43-.21-.67-.38-1.13-.34-1-.55-1.56c-.09-.3-.17-.61-.27-.91s-.09-.3-.14-.45a1.94,1.94,0,0,1,0-.42,4.08,4.08,0,0,1,.13-.91c.08-.3.17-.59.27-.88.19-.57.41-1.1.59-1.55s.35-.83.47-1.09Z"/><path class="cls-16" d="M33.6,99.07a2.11,2.11,0,0,0,0,.44,2.69,2.69,0,0,0,.08.5,3.77,3.77,0,0,0,.19.64,7.34,7.34,0,0,0,.33.71c.16.23.31.49.5.73s.42.47.63.69.45.44.64.67.41.45.56.7a2.92,2.92,0,0,0,.24.37,2.64,2.64,0,0,1,.18.38,3.22,3.22,0,0,1,.25.76,1.47,1.47,0,0,1,0,.36c0,.12,0,.24,0,.35s-.06.43-.08.62a2.24,2.24,0,0,1-.13.47c-.08.26-.12.42-.12.42l.22-.38a2.1,2.1,0,0,0,.22-.45,4.44,4.44,0,0,0,.19-.64,3.57,3.57,0,0,0,0-.81,3.19,3.19,0,0,0-.2-.88,4.17,4.17,0,0,0-.19-.44l-.24-.41a7.47,7.47,0,0,0-.6-.79c-.22-.24-.45-.45-.67-.67l-.63-.63-.52-.63c-.14-.23-.29-.43-.4-.63s-.21-.39-.28-.57a2.83,2.83,0,0,1-.16-.46A2.31,2.31,0,0,1,33.6,99.07Z"/><path class="cls-16" d="M34.13,100.81s0,.23,0,.56c0,.17,0,.36,0,.56s0,.41,0,.63,0,.42,0,.62a4.41,4.41,0,0,0,0,.54,5,5,0,0,0,.05.56,2.86,2.86,0,0,0,.26-.52,3.78,3.78,0,0,0,.12-.57,5,5,0,0,0,0-.67,3.94,3.94,0,0,0-.27-1.2A2.29,2.29,0,0,0,34.13,100.81Z"/><path class="cls-16" d="M68.94,123.61s0,.16-.07.45-.1.71-.15,1.21c-.1,1-.19,2.34-.24,3.67s0,2.68,0,3.68c0,.5.05.92.06,1.22s0,.46,0,.46,0-.17.07-.46.09-.71.14-1.21c.1-1,.2-2.33.24-3.67s0-2.67,0-3.68c0-.5,0-.92-.06-1.21Z"/></g><path class="cls-17" d="M88.09,118.49l-4-1.63s1.15-10,.61-13.32C86,107.6,88.37,115.19,88.09,118.49Z"/><path class="cls-18" d="M83.84,117l0-.2c0-.1,1.14-10,.61-13.24l.52-.13c.91,2.83,3.66,11.45,3.37,15.05l0,.36Zm.57-.34,3.44,1.41c.07-3-1.6-8.8-2.7-12.37A108.53,108.53,0,0,1,84.41,116.69Z"/><polygon class="cls-41" points="60.48 135.09 59.69 136.75 47.45 131.3 48.4 129.48 60.48 135.09"/><path d="M59.58,137l-12.24-5.45a.29.29,0,0,1-.14-.15.28.28,0,0,1,0-.22l.94-1.81a.27.27,0,0,1,.35-.12l12.08,5.6a.25.25,0,0,1,.14.16.28.28,0,0,1,0,.2l-.79,1.66a.25.25,0,0,1-.24.15A.22.22,0,0,1,59.58,137Zm-11.06-7.16-.7,1.34,11.74,5.23.56-1.18Z"/><polygon class="cls-41" points="90.71 133.32 81.19 137.86 80.39 136.52 90 131.45 90.71 133.32"/><path d="M81,138l-.8-1.33a.26.26,0,0,1,0-.21.25.25,0,0,1,.14-.16l9.6-5.07a.28.28,0,0,1,.22,0,.31.31,0,0,1,.16.16l.71,1.87a.26.26,0,0,1-.14.33l-9.51,4.54A.29.29,0,0,1,81,138Zm8.9-6.16-9.1,4.8.53.88,9.08-4.32Z"/><path class="cls-41" d="M69.15,131.41a1.91,1.91,0,1,0,1.91-1.91A1.91,1.91,0,0,0,69.15,131.41Z"/><path class="cls-42" d="M69.15,131.41a1.91,1.91,0,1,0,1.91-1.91A1.91,1.91,0,0,0,69.15,131.41Zm.67-.24a1.39,1.39,0,1,1,1.39,1.39A1.38,1.38,0,0,1,69.82,131.17Z"/><path class="cls-43" d="M71,129.91a1.63,1.63,0,0,1,1.13,1.74C72,132.27,73.08,130,71,129.91Z"/><path class="cls-15" d="M28.8,86.4l.12.31A24.83,24.83,0,0,1,28,91.39l-1.83-3.54C27.74,87,28.8,86.4,28.8,86.4Z"/><path class="cls-15" d="M25.82,87.74l.23-.13c1.54-.88,2.61-1.44,2.62-1.45l.27-.14.25.65v.06a25,25,0,0,1-.92,4.74l-.19.62Zm.71.21,1.41,2.73a25.82,25.82,0,0,0,.7-3.9C28.26,87,27.5,87.4,26.53,88Z"/><path class="cls-17" d="M26.18,87.85,28,91.39c-.71,2.3-1.92,4.48-4,5a21.51,21.51,0,0,1-4.91.6l-1.77-3.36A77.73,77.73,0,0,1,26.18,87.85Z"/><path class="cls-18" d="M19,97.21,17,93.51l.17-.13a79.25,79.25,0,0,1,8.86-5.77l.24-.13,2,3.89,0,.1c-.92,3-2.32,4.71-4.16,5.14a21.92,21.92,0,0,1-5,.6Zm7.1-9a78.64,78.64,0,0,0-8.37,5.44l1.59,3A21.35,21.35,0,0,0,24,96.09c1.62-.38,2.88-2,3.74-4.67Z"/><path class="cls-15" d="M17.36,93.59,19.13,97A14.94,14.94,0,0,1,15,96.38l-.18-.51A21.53,21.53,0,0,1,17.36,93.59Z"/><path class="cls-15" d="M19.13,97.21a14.87,14.87,0,0,1-4.23-.57l-.13,0-.29-.79.11-.12a24,24,0,0,1,2.6-2.31l.25-.2,2.13,4Zm-4-1.28.09.23a13.74,13.74,0,0,0,3.5.51L17.27,94A25.9,25.9,0,0,0,15.09,95.93Z"/><path class="cls-44" d="M41.57,21.39s7.6,10.5,20.72-.44C58.75,27.54,46.53,36.71,41.57,21.39Z"/><g class="cls-10"><path class="cls-11" d="M85.39,7.68c0,2.81-2-1.46-9.38.38,7.59.59,9.3.95,14.91,5.56C87.36,8.94,86.7,5,94.69,7.41a16.73,16.73,0,0,0-8-1s-1.38-3.1-6.08-4.88C83,2.92,85.09,5,85.39,7.68Z"/></g><path class="cls-13" d="M51.48,14.35c4-2.15,7.84-4.46,12.12-5.93A29.94,29.94,0,0,1,70.41,7a27.24,27.24,0,0,1,7.1.37l1,.4c.09,0,.2-.08.11-.15l-.3-.2a.08.08,0,0,0,0-.11L78,7.19a15.45,15.45,0,0,0-7.65-2.3,35,35,0,0,1,4.8-.32,37.92,37.92,0,0,1,7.56,1h.08l0,0a.16.16,0,0,0,.18-.25A14.32,14.32,0,0,0,76.39,2.1a13.21,13.21,0,0,0-1.66-.21C69.49.73,63.93,2.5,59,4.51c-12.07,4.9-15.1,8.6-19.53,13.42,0,0,12.56-8.58,19.87-10.3-1.24.76-3.67,2.11-4.86,2.9-8.58,5.64-9.75,7.35-9.75,7.35Z"/><path class="cls-13" d="M98.26,32.08c-5.67-5.57-7.73-13.86-7.73-13.86s-4.67,3.43-4.09,8.69c-1.87-7.25-1.79-10.7-1.79-10.7S82,22.82,79.93,24.74a18,18,0,0,0,.9-8.75s-3.43,8.34-10.4,11.89A16,16,0,0,0,73,16.29S65.86,27.48,53.71,30.08c8.18-4.62,10.12-9.23,10.27-11.9C61.5,21.35,56,25.24,46.67,23.92a19,19,0,0,0,12.57-7.4c4.18-5.73,14.7-6.72,14.7-6.72s-7,4.54-7.5,8.66c3.51-5.14,10.8-6.32,10.8-6.32l-2,6.7s5.62-4.25,5.74-6.38,1.38,3.6,1.38,3.6l2.23-3.39,2.35,5,1.87-3.77S99.26,17.55,98.26,32.08Z"/><path class="cls-26" d="M60.93,64.14s.25.18.59.45l.59.44c.23.15.43.34.68.49s.46.33.69.46.43.29.62.38a6.89,6.89,0,0,1,.63.39,4.91,4.91,0,0,1-.74-.1,4.31,4.31,0,0,1-.73-.26,2.05,2.05,0,0,1-.39-.2L62.48,66a5.33,5.33,0,0,1-.68-.56c-.1-.1-.19-.21-.27-.3a2.64,2.64,0,0,1-.23-.29A2.8,2.8,0,0,1,60.93,64.14Z"/><path class="cls-7" d="M68,49.26A3.06,3.06,0,0,1,68.31,52a33.79,33.79,0,0,1-3.5,5.67c-1.2,1.35,1.73,2.83,4.59,4,2,.72,4.23-2.13,4.23-2.13s-1.88,1.38-5.4.13-1-3.66-.31-4.81S70.43,51.72,68,49.26Z"/><path class="cls-45" d="M80,63.35c-9.57,3.76-18.74.09-18.74.09-.45-.14-.59.53.06,1.23,4.95,4.42,11.24,3.11,14.72,1.62S81.62,62.72,80,63.35ZM68.69,66.89c-4.42-.4-6.89-2.66-5.53-2.51,0,0,4.6,2,11.72.83C78.62,64.47,74.28,67.29,68.69,66.89Z"/><path class="cls-46" d="M64.38,65s2.23.57,3.42.72.3.94-1.77.33S64.06,64.94,64.38,65Z"/><path class="cls-46" d="M69.53,66.22c0,.13-.22.23-.47.21s-.45-.13-.45-.26.22-.23.47-.21S69.53,66.09,69.53,66.22Z"/><path class="cls-46" d="M66.46,71.78A8.8,8.8,0,0,0,71.65,73c1.66-.09-.21,1.51-2.57.67S65.85,71.49,66.46,71.78Z"/><path class="cls-47" d="M80.23,64c-1.3,5.31-4.71,8.09-9.79,8.06-5.34-.18-7.6-6.38-7.6-6.38a10.85,10.85,0,0,0,1.42,4.82c-.08-.55.06-.89.88-.2,1.75,1.47,5.71,3.27,9.46,1.46C77.19,70.38,76,74,71.71,74.85,77.22,74.49,80.14,67.71,80.23,64Z"/><path class="cls-20" d="M103.92,51.71a.15.15,0,0,1,0-.11,3.06,3.06,0,0,0,0-2.92c-1-1.46-2.49.81-2.83,1.69s-1.12,2.73.5,2.61a5.85,5.85,0,0,0,.93-.17l.11-.06A4.3,4.3,0,0,0,103.92,51.71Z"/><path class="cls-20" d="M41.14,50.75a.13.13,0,0,0,0-.12,3.06,3.06,0,0,1,.32-2.9c1.16-1.32,2.37,1.1,2.61,2s.78,2.83-.81,2.53a5,5,0,0,1-.91-.28l-.09-.07A4.33,4.33,0,0,1,41.14,50.75Z"/><path class="cls-13" d="M54.47,40.19a5.86,5.86,0,0,1,7.17,1.65C60.62,38.52,56.17,37.76,54.47,40.19Z"/><path class="cls-13" d="M80.29,41.71a6.27,6.27,0,0,1,8,.52C86.51,39.66,82.85,38.52,80.29,41.71Z"/><path class="cls-13" d="M30.82,30.79a13.21,13.21,0,0,0,3.77,9.3C36.3,42.24,29.08,40.08,30.82,30.79Z"/><path class="cls-13" d="M111.19,35.5a13.22,13.22,0,0,1-.77,10C109.45,48.07,115.67,43.82,111.19,35.5Z"/><path class="cls-13" d="M109.33,32.64a9.57,9.57,0,0,1-1.83,7C106.48,41.35,111.44,39.13,109.33,32.64Z"/><path class="cls-13" d="M28.94,37a18.31,18.31,0,0,0,1.4,7.31c1.54,3.23-1.67-.85-1.79-4.31S29,35.87,28.94,37Z"/><g class="cls-10"><path class="cls-48" d="M66.44,263.94a15.17,15.17,0,0,1-.21-4.08h0s-.36,3.31-.35,4.72a38.22,38.22,0,0,1-.65,8c-.67,3-2.64,4.05-5.8,4.17s-6.1-.68-5.22-4.49c.57-2.51,1.06-4.31,1.33-5.24-.3.7-.57,1.43-.79,2.12-.82,2.59-1.3,2.39-3.58,6.51a9.41,9.41,0,0,0-.76,3.16c.48-1.34,1.32-2.49,2.72-1.74a12.83,12.83,0,0,0,9.8.47c2.61-1.1,2.52,6.4-7,5.21l-.57.13c.48.08,1,.14,1.52.19,5.7.51,9.19-1.34,9.62-5.21C67,273.48,67,266.74,66.44,263.94Z"/></g><g class="cls-10"><path class="cls-48" d="M89.63,268.63a38.88,38.88,0,0,1-1.31-6.13,25.53,25.53,0,0,1-1.47,7.92c-2.48,6.68-6.18,8.62-9.45,8.05s-3.82-2.14-3.72-3.69c-1.83,1.43-3.89,2.5-4.74,4.48a2.6,2.6,0,0,1,3.12-.33,12.25,12.25,0,0,0,9.35.92c2.24-.8,3,4.11-5.15,4.3a10.72,10.72,0,0,0-2.28.23c.89.06,1.78.07,2.59.08,4.9.06,7.4-.56,9.09-4S91,272.58,89.63,268.63Z"/></g><path class="cls-17" d="M82.23,281.35s-1,2.33-6.66,1.5c-2.29-.31.49,1.17,4.18.86S82.72,280.69,82.23,281.35Z"/><path class="cls-17" d="M64.88,279.79s-1,2.66-7.31,1.66c-2.6-.44.32,1.22,3.68,1S65.58,279.26,64.88,279.79Z"/><path class="cls-49" d="M74.31,219.92s4.62,28.05,4.48,41.4C78.9,267,80.72,246.62,74.31,219.92Z"/><path class="cls-49" d="M52.73,223.74s5.27,20.93,6.13,33.2C59.29,259.92,59.16,241.13,52.73,223.74Z"/><path class="cls-50" d="M70.51,51.34s-2.41,5.48-1.79,7.35C67.42,58,67.38,56.66,70.51,51.34Z"/><path class="cls-2" d="M26.18,87.85s-1.35-1.48-.83-2.89,1-2.24-.81-4.84S21.48,76,21,71.26c-.52-3.65-3.57-1.19-2.6,4.62C13.22,69.62,7.87,65.53,7.64,67c-3.35-2.08-4.17-1.71-3.65-.6C.94,64-.47,66.13,1.76,68.88c-1.71-.45-1.93.74-1,1.34s2.53,4.46,3.73,7.89,3.05,4.69,4.54,8.56c1.34,3,4.54,4.39,6.17,5.21a7.94,7.94,0,0,1,2.13,1.71S23.36,94.68,26.18,87.85Z"/><path class="cls-3" d="M17.32,93.81a.25.25,0,0,1-.14-.08,7.33,7.33,0,0,0-2-1.65l-.44-.22C13,91,10.11,89.63,8.85,86.75a21.83,21.83,0,0,0-2.36-4.4A18.29,18.29,0,0,1,4.3,78.18C2.77,73.77,1.41,70.86.68,70.41A1.16,1.16,0,0,1,0,69.18c.12-.43.58-.66,1.22-.61a3,3,0,0,1-.67-2.76C1,65,2.22,65,3.63,65.88a.54.54,0,0,1,.09-.31.63.63,0,0,1,.59-.27,8,8,0,0,1,3.23,1.39.58.58,0,0,1,.48-.2c1.52,0,6,3.9,10,8.64-.3-2.71.29-4.53.94-5.3a1.25,1.25,0,0,1,.92-.51c.31,0,1.05.19,1.29,1.92a14.56,14.56,0,0,0,3.31,8.43l.23.32c1.8,2.52,1.44,3.46,1,4.76l-.11.28c-.46,1.27.77,2.65.78,2.67a.2.2,0,0,1,0,.23c-2.21,5.36-6.4,5.94-8.1,5.94A7,7,0,0,1,17.32,93.81Zm7.83-8.93.1-.29c.46-1.21.77-2-.9-4.34l-.22-.32a14.87,14.87,0,0,1-3.39-8.64c-.13-.94-.46-1.52-.85-1.52a.82.82,0,0,0-.58.35c-.65.77-1.23,2.73-.73,5.72a.22.22,0,0,1-.13.24.22.22,0,0,1-.26-.06c-4.63-5.63-9-9.08-10.17-9.08-.13,0-.15,0-.16.11a.21.21,0,0,1-.13.17.22.22,0,0,1-.21,0c-2-1.28-2.89-1.47-3.21-1.47a.29.29,0,0,0-.22.07c0,.06,0,.23.11.52a.24.24,0,0,1-.07.27.22.22,0,0,1-.27,0,3.94,3.94,0,0,0-2.15-1A.74.74,0,0,0,1,66c-.22.46-.1,1.45.94,2.74A.21.21,0,0,1,2,69a.23.23,0,0,1-.24.1C1,68.92.54,69,.46,69.3s.06.49.45.73c1.14.7,2.88,5.32,3.82,8A17.56,17.56,0,0,0,6.86,82.1a22.36,22.36,0,0,1,2.4,4.48c1.19,2.72,4,4.07,5.62,4.88l.46.22a8.27,8.27,0,0,1,2.13,1.7,5.76,5.76,0,0,0,.81.05c1.6,0,5.51-.55,7.64-5.54A3.32,3.32,0,0,1,25.15,84.88Z"/><path class="cls-3" d="M18.21,75.43a6.21,6.21,0,0,0,.2.74,6.34,6.34,0,0,0,.26.73c.12.23.22.47.36.69a2.3,2.3,0,0,0,.21.33l.24.32V78l-.52.65c-.17.22-.3.47-.45.7a5.33,5.33,0,0,0-.37.76,2.58,2.58,0,0,0-.14.39l-.11.41a1.54,1.54,0,0,0-.07.42l0,.43a2,2,0,0,0,0,.42l.06.42A1.85,1.85,0,0,0,18,83l.15.39.22.35.23.34-.15-.38c-.05-.12-.11-.24-.15-.37l-.08-.39a1.72,1.72,0,0,1-.08-.38v-.4a1.28,1.28,0,0,1,0-.39l.06-.38a1,1,0,0,1,.09-.38l.11-.37a2.35,2.35,0,0,1,.14-.37l.17-.35a1.45,1.45,0,0,1,.18-.35c.14-.22.26-.46.42-.67l.47-.64h0a.2.2,0,0,0,0-.25l-.24-.28a3.15,3.15,0,0,1-.22-.29,5.23,5.23,0,0,1-.41-.63c-.12-.22-.25-.44-.36-.66S18.32,75.66,18.21,75.43Z"/><path class="cls-3" d="M19.4,87.26a10.58,10.58,0,0,0-.55-1c-.19-.31-.44-.68-.75-1.09A8.65,8.65,0,0,0,17,83.92a4.43,4.43,0,0,0-1.78-1l-1.06-.28c-.35-.13-.71-.22-1.06-.37A10.07,10.07,0,0,1,11,81.15l-.49-.34-.45-.4a6.91,6.91,0,0,1-.85-.86,8.77,8.77,0,0,1-1.28-2c-.34-.72-.65-1.47-1-2.18A19.11,19.11,0,0,0,4.88,71.6c-.19-.25-.39-.48-.57-.7l-.56-.59-.53-.47c-.17-.14-.34-.25-.49-.36A5.06,5.06,0,0,0,2,69l-.26-.15.25.17a7,7,0,0,1,.67.5c.14.12.3.23.46.38l.49.5.52.6c.16.23.35.46.52.72a14.29,14.29,0,0,1,1,1.71c.31.63.62,1.31.92,2s.6,1.45,1,2.2a9.18,9.18,0,0,0,1.31,2.15,7,7,0,0,0,.9.9l.48.41.52.35a11.05,11.05,0,0,0,2.16,1.11c.37.15.75.25,1.11.36l1.07.24a4.27,4.27,0,0,1,1.7.9,12.09,12.09,0,0,1,2,2.2C19.19,86.9,19.4,87.26,19.4,87.26Z"/><path class="cls-3" d="M18.73,78.11a2.11,2.11,0,0,0-.32,0c-.2,0-.49,0-.84,0a9.5,9.5,0,0,0-1.2.13l-.66.12-.68.19c-.22.07-.45.12-.66.21l-.63.25-.58.25-.5.27c-.61.33-1,.59-1,.59s.46-.12,1.1-.36l.53-.19.59-.19.62-.21c.21-.08.44-.13.66-.19l.65-.2.64-.16c.21,0,.41-.11.6-.14l.54-.11c.34-.06.63-.13.82-.14Z"/><path class="cls-3" d="M14,79l-.54-.44c-.35-.28-.83-.7-1.41-1.19a23,23,0,0,1-1.87-1.78c-.15-.18-.3-.36-.43-.55a1.69,1.69,0,0,1-.17-.29l-.18-.34C9.21,74,9,73.5,8.75,73.06L8,71.74l-.38-.64-.41-.61c-.26-.4-.53-.78-.78-1.14a12.14,12.14,0,0,0-.74-1C4.67,67.18,4,66.42,4,66.42s.58.86,1.47,2.09c.45.6.87,1.4,1.4,2.19.12.2.25.4.39.61l.36.64.75,1.31c.25.44.48.9.71,1.34l.18.32a4.05,4.05,0,0,0,.21.35,5.48,5.48,0,0,0,.48.58,17.78,17.78,0,0,0,2,1.71c.61.47,1.15.82,1.52,1.07Z"/><path class="cls-3" d="M7.64,67l.41.48c.26.32.64.75,1.06,1.3l.69.87c.25.3.47.66.73,1l.79,1.07c.28.39.57.72.86,1.09s.65.69,1,1l1,.91.92.83c.3.26.55.53.8.77s.44.49.63.69a3.36,3.36,0,0,1,.45.57l.38.51-.3-.56a4.69,4.69,0,0,0-.39-.62,7,7,0,0,0-.58-.76c-.24-.26-.48-.55-.76-.83s-.57-.59-.88-.89l-1-.92c-.32-.31-.62-.65-.93-1s-.61-.71-.87-1l-.81-1.06c-.27-.35-.52-.68-.79-1l-.75-.84c-.46-.52-.91-.9-1.18-1.19S7.64,67,7.64,67Z"/><path class="cls-6" d="M1.73,68.84l0,0a1.92,1.92,0,0,0-1.11,0,1.5,1.5,0,0,1-.09-.56l.46.2A4.25,4.25,0,0,1,1.73,68.84Z"/><path class="cls-7" d="M18.71,85.38a7.51,7.51,0,0,0-4.07-2.2A8.34,8.34,0,0,1,8.2,78.72c-1.31-2.63-3.45-8.07-6.47-9.88C.51,67.31.41,66,1.1,65.54c-.08.61.23,1.53,1.56,2.89,3,3,6.44,11.13,8.71,11,1.29-.22-.34-2-1.53-3.27s-2-3.23-3.62-5.66C5.15,68.82,4.16,67.16,3.46,66c.17.11.35.24.53.38-.32-.7-.12-1.1.9-.8-.09.42.09,1.08.88,2.13,2.09,2.77,4.8,7.4,7,9.33s4.07.79,2.54-.63A60.39,60.39,0,0,1,7.5,66.94l.14.08c.06-.4.5-.39,1.21,0A4.34,4.34,0,0,0,10,68.71c3,3.45,4.86,5.54,6.67,7.58,1.08,1.29,2.6,1.13,1.13-.57s-3.28-4.13-3.28-4.13v0c1.25,1.25,2.58,2.71,3.89,4.31a13.82,13.82,0,0,1-.19-2,10.56,10.56,0,0,0,1.45,4.24C17.92,80.52,17.19,82,18.71,85.38Z"/><path class="cls-7" d="M6.05,79.22c2.83,4.92,4.24,9.1,9.1,10.91a8.63,8.63,0,0,1,4.94,3.31,7.48,7.48,0,0,1-2.73.15,7.94,7.94,0,0,0-2.13-1.71c-1.63-.82-4.83-2.16-6.17-5.21-1.49-3.87-3.35-5.14-4.54-8.56S1.76,70.81.79,70.22C.1,69.79,0,69.07.65,68.85a2.25,2.25,0,0,0,.65.94C2.21,70.58,3.23,74.31,6.05,79.22Z"/><path class="cls-7" d="M23.82,84.94c1.25-2.48-1-5.46-2.24-7.43S20,74.38,20.15,71.33a3.29,3.29,0,0,0-.26-1.78c.48,0,.91.54,1.07,1.71.52,4.77,1.72,6.25,3.58,8.86s1.34,3.42.81,4.84.83,2.89.83,2.89a12.24,12.24,0,0,1-1,2C23.68,87.74,23.13,86.33,23.82,84.94Z"/><path class="cls-6" d="M57.48,98c3.26,4.15,1.63,5.05,3.11,8.76-1.33,1.33.3,3.86.3,3.86s-1.19-.15-.44,2.37,1,3.42-4.75,2.23-7.13-.89-9.06-4.6c-3.27-6.29,2.82-16.93,2.82-16.93C52.28,88.48,54.21,93.83,57.48,98Z"/><g class="cls-10"><path class="cls-16" d="M45.35,112.92l1.27,3.16a6.21,6.21,0,0,1,.32.91l.14-.17L50.15,125a33.76,33.76,0,0,0-10.76,11.78c4.11-4,11.55-10.29,16.36-9.65,5.06.69,3,13.66,1.55,20.62L68.56,134.3,79,148.18l.15-.08c-1.45-6.33-3.6-18.71,1.45-19.41,3.75-.51,9.93,4,14.72,8.23a85,85,0,0,0-5.06-7.44L84,128.41l-1.15-8.79a19.36,19.36,0,0,1-14.28-4.53S63.35,119,59,119.43s-6.27-4.38-7.66-7.37C52.5,119.33,50.34,120.15,45.35,112.92Z"/></g><path class="cls-41" d="M66.06,113.72s-.2,5.07-.2,7.15c0,1.78,1,2.93,3.11,2.93,1.89,0,3-.37,3.35-2.67s.74-5.84.74-5.84A19.37,19.37,0,0,0,66.06,113.72Z"/><path d="M65.59,120.87c0-2.06.2-7.11.2-7.16a.27.27,0,0,1,.27-.25,19.37,19.37,0,0,1,7.11,1.59.26.26,0,0,1,.15.27s-.42,3.58-.73,5.85S71,124.06,69,124.06h0C66.79,124.06,65.59,122.93,65.59,120.87Zm.73-6.88c0,1.06-.2,5.1-.2,6.88s1,2.66,2.84,2.66v0c1.87,0,2.81-.37,3.09-2.43s.61-4.87.71-5.64A19.34,19.34,0,0,0,66.32,114Z"/><path class="cls-51" d="M69.55,114.16a20.66,20.66,0,0,1,3.51,1.13s-.42,3.55-.74,5.84-1.35,2.62-3.09,2.66C69.43,120.58,69.51,117.37,69.55,114.16Z"/><path class="cls-51" d="M66.28,122.55a3.17,3.17,0,0,1-.42-1.68c0-2.08.2-7.15.2-7.15l.44,0C66.43,116.67,66.39,119.61,66.28,122.55Z"/><path class="cls-2" d="M84.66,105.07a14.23,14.23,0,0,1-3.1-1.92c-.89-.88-3-6.05-8.19-6.27s-9.21-.43-10.84.74-.52,2.73.59,3.1c-2.14.66-2,4.64,1,5.46-2.65.73-2.14,3.24-.74,4-2.13,1.11-2.13,2.66-1,4.06s2.8,2.58,3.76.37a31,31,0,0,1,6.57,2.21c2.51,1.11,5.68,2,8.7-1.11l2.72,1.1A54.46,54.46,0,0,0,84.66,105.07Z"/><path class="cls-3" d="M72.62,117.07a31.8,31.8,0,0,0-6.35-2.16,1.75,1.75,0,0,1-1.55,1.2h0c-1,0-2-1-2.51-1.68a2.86,2.86,0,0,1-.73-2.38A2.93,2.93,0,0,1,63,110.21a2.54,2.54,0,0,1-.93-2.24,2.25,2.25,0,0,1,1.43-1.79,3.55,3.55,0,0,1-2-3.13,2.61,2.61,0,0,1,1.14-2.34,2.26,2.26,0,0,1-1.05-1.51,1.8,1.8,0,0,1,.86-1.76c.93-.67,2.57-1,5.48-1,1.5,0,3.25.07,5.09.15l.41,0c4.26.18,6.48,3.58,7.68,5.41a6.26,6.26,0,0,0,.66.92,14.25,14.25,0,0,0,3,1.88.23.23,0,0,1,.13.18,55.07,55.07,0,0,1-.53,11.85.23.23,0,0,1-.11.16.23.23,0,0,1-.2,0l-2.57-1a6.52,6.52,0,0,1-4.72,2.09A10.32,10.32,0,0,1,72.62,117.07Zm8.88-1.51,2.45,1a54.1,54.1,0,0,0,.5-11.33,14,14,0,0,1-3-1.91,7.49,7.49,0,0,1-.71-1c-1.16-1.76-3.3-5-7.33-5.21l-.4,0c-1.85-.08-3.59-.16-5.08-.16-2.77,0-4.38.27-5.22.87A1.38,1.38,0,0,0,62,99.13a1.87,1.87,0,0,0,1.21,1.38.22.22,0,0,1,0,.42A2,2,0,0,0,61.9,103,3,3,0,0,0,64.21,106a.23.23,0,0,1,.17.22.22.22,0,0,1-.17.21A2.07,2.07,0,0,0,62.5,108a2.11,2.11,0,0,0,1,2,.23.23,0,0,1,.11.2.22.22,0,0,1-.12.19,2.72,2.72,0,0,0-1.61,1.71,2.46,2.46,0,0,0,.65,2,3.32,3.32,0,0,0,2.16,1.52c.49,0,.9-.37,1.22-1.1a.22.22,0,0,1,.25-.13,31.35,31.35,0,0,1,6.61,2.23,10.15,10.15,0,0,0,4,1,6.1,6.1,0,0,0,4.5-2.06.2.2,0,0,1,.16-.07Z"/><path class="cls-3" d="M71.14,98a2.78,2.78,0,0,0-.85.1c-.12,0-.26.08-.4.15a2.12,2.12,0,0,0-.42.22,2.47,2.47,0,0,0-.41.33,2.44,2.44,0,0,0-.33.43,2.49,2.49,0,0,0-.21.51,2.32,2.32,0,0,0-.07.52c0,.17,0,.33,0,.48a3.37,3.37,0,0,0,.12.41,2.94,2.94,0,0,0,.27.56l.12.2s0-.08,0-.23-.09-.34-.1-.59,0-.25,0-.39,0-.27,0-.42a3.15,3.15,0,0,1,.09-.42,1.47,1.47,0,0,1,.19-.4,1.85,1.85,0,0,1,.25-.37,3.08,3.08,0,0,1,.33-.3,2.8,2.8,0,0,1,.35-.25c.11-.08.23-.13.33-.2s.41-.21.54-.26Z"/><path class="cls-3" d="M63.12,100.72s.35.07.88.13a17.54,17.54,0,0,0,1.93.11,16.1,16.1,0,0,0,1.93-.08,6.58,6.58,0,0,0,.88-.12s-.35-.07-.88-.13-1.23-.1-1.93-.11a18.5,18.5,0,0,0-1.93.08C63.47,100.65,63.12,100.72,63.12,100.72Z"/><path class="cls-3" d="M69.27,104.14a12.51,12.51,0,0,0-.36,1.23c-.1.38-.19.81-.28,1.29s-.16,1-.22,1.48-.1,1-.1,1.51v.69c0,.22,0,.43,0,.62.06.77.14,1.28.14,1.28s.07-.52.11-1.27c0-.19,0-.4.06-.62s0-.44.06-.68c0-.47.11-1,.15-1.48.11-1,.22-2,.3-2.77,0-.38.06-.7.09-.92S69.27,104.14,69.27,104.14Z"/><path class="cls-3" d="M64.15,106.18s.29.09.72.18a12.64,12.64,0,0,0,1.6.22,13.11,13.11,0,0,0,1.62,0,6.88,6.88,0,0,0,.74-.07,6.56,6.56,0,0,0-.72-.19,14.77,14.77,0,0,0-1.6-.22,12.94,12.94,0,0,0-1.62,0A6.88,6.88,0,0,0,64.15,106.18Z"/><path class="cls-3" d="M63.41,110.23a6.71,6.71,0,0,0,.76.16,14.25,14.25,0,0,0,1.67.18,13.06,13.06,0,0,0,1.68,0,6.81,6.81,0,0,0,.77-.09,6.19,6.19,0,0,0-.75-.16,14.44,14.44,0,0,0-1.68-.18c-.61,0-1.22,0-1.68,0S63.41,110.23,63.41,110.23Z"/><path class="cls-3" d="M66.18,114.64a1.44,1.44,0,0,0-.2-.16,2.25,2.25,0,0,0-.44-.16,1.14,1.14,0,0,0-.45,0,1.11,1.11,0,0,0-.24.08.75.75,0,0,0,.17.17,1.42,1.42,0,0,0,.45.19,1.18,1.18,0,0,0,.26,0l.22,0A1.69,1.69,0,0,0,66.18,114.64Z"/><g class="cls-5"><path class="cls-2" d="M63.12,100.72a2.08,2.08,0,0,1-1.35-1.53c1.35.11,3.7.28,5.2.28,2.21,0,3.17-2.51-1.33-2.51H64.38a47.89,47.89,0,0,1,9-.07c4,.17,6.14,3.24,7.34,5.06l-.08.11s-4.13-4.35-8-3.76c-2.43.44-2.36,2.88-1.84,4.06s-.54,4.46-.88,8.73c-.22,2.81,1.83,2.85,4.49,4a6.21,6.21,0,0,0,6.21-.58,1.87,1.87,0,0,1,2.36.23,26.12,26.12,0,0,0,.76-10.18c.55.29,1,.49,1,.49a54.46,54.46,0,0,1-.53,11.79l-2.72-1.1c-3,3.1-6.19,2.22-8.7,1.11a31,31,0,0,0-6.57-2.21c-1,2.21-2.65,1-3.76-.37a3.3,3.3,0,0,1-.69-1.39c4.22.72,5.33.11,5.06-1.25-.19-1-2.52-1-4.16-.88a4.85,4.85,0,0,1,.82-.54,2.38,2.38,0,0,1-.93-1c3.33.07,4.78-.16,4.71-1.37,0-.8-2.27-1.09-4-1.2a3.49,3.49,0,0,1,1-.43,3.32,3.32,0,0,1-1.8-1.2c4.69.48,5.71-.48,5.51-2.34-.15-1.34-3.45-1.44-5.58-1.37A1.79,1.79,0,0,1,63.12,100.72Z"/></g><path class="cls-6" d="M57.48,98c3.26,4.15,1.63,5.05,3.11,8.76-1.33,1.33.3,3.86.3,3.86s-1.19-.15-.44,2.37,1,3.42-4.75,2.23-7.13-.89-9.06-4.6c-3.27-6.29,2.82-16.93,2.82-16.93C52.28,88.48,54.21,93.83,57.48,98Z"/><path class="cls-17" d="M93.83,83.8s2.3.87,4.18,6.63C97.72,86.54,96.13,83.8,93.83,83.8Z"/><path class="cls-17" d="M100.46,94.61s11,13.12,10.24,22.06C112.43,112.49,110.55,105.86,100.46,94.61Z"/><path class="cls-17" d="M44.44,85a117.09,117.09,0,0,0-8.19,12.6C35,100,37.89,91.38,44.44,85Z"/><path class="cls-17" d="M29.83,92.64A78.9,78.9,0,0,1,32.47,106C33.23,101.71,31.59,95.16,29.83,92.64Z"/><path class="cls-17" d="M67.73,115.29l-.25,8.11a2.6,2.6,0,0,1-.76-.44l.19-8.11Z"/><path class="cls-6" d="M57.48,98c3.26,4.15,1.63,5.05,3.11,8.76-1.33,1.33.3,3.86.3,3.86s-.73-.24-.44,2.37c.52,4.71-5.15,3.61-7.06,1s-2.91-7.1-2.21-12.13c-2.91,9.15.5,12.16.5,12.16s-2.81,0-5-3.39c-3.89-5.92,2.82-16.93,2.82-16.93C52.28,88.48,54.21,93.83,57.48,98Z"/><path class="cls-6" d="M90.46,96.11c2.79,5.06,1.9,8.74,1.9,8.74a25,25,0,0,0-8.1-2.66l-.76,1s-2.91-1.65-.89-5.07C85.53,94.59,87.93,91.93,90.46,96.11Z"/><g class="cls-10"><path class="cls-16" d="M88.09,118.49c-.12-4.83-3.32-15.26-3.32-15.26l4.91,15.48s-.12.45-2.14,6.29c21.33,5.13,25.82-2.42,26.53-4.07-1.79,5.29-9.38,10.32-24,8.3l.11.15c-3.66-.55-5.93-.91-5.93-.91S86.08,125.57,88.09,118.49Z"/></g><path class="cls-6" d="M90.46,96.11c2.79,5.06,1.9,8.74,1.9,8.74a25,25,0,0,0-8.1-2.66l-.76,1s-2.91-1.65-.89-5.07C85.53,94.59,87.93,91.93,90.46,96.11Z"/><path class="cls-6" d="M57.48,98c3.26,4.15,1.63,5.05,3.11,8.76-1.33,1.33.3,3.86.3,3.86s-.73-.24-.44,2.37c.52,4.71-5.15,3.61-7.06,1s-2.91-7.1-2.21-12.13c-2.91,9.15.5,12.16.5,12.16s-2.81,0-5-3.39c-3.89-5.92,2.82-16.93,2.82-16.93C52.28,88.48,54.21,93.83,57.48,98Z"/><g class="cls-10"><path class="cls-16" d="M20.55,97.1c2.75,11,9,23.32,15.69,23,4.07-.41,7.64-5.61,7.64-5.61a20.83,20.83,0,0,1,.91-14.36c-1.4,9.21-.93,9.38,2.09,16.92-1,1.17-5.31,6-11.41,5.75-6.82-.26-15.7-13.29-20.44-26.28A40.51,40.51,0,0,0,20.55,97.1Z"/></g><path class="cls-41" d="M63.45,86.46a6.62,6.62,0,1,0,6.62-6.62A6.62,6.62,0,0,0,63.45,86.46Z"/><path d="M63.18,86.46a6.89,6.89,0,1,1,6.89,6.89A6.89,6.89,0,0,1,63.18,86.46Zm.53,0a6.36,6.36,0,1,0,6.36-6.35A6.36,6.36,0,0,0,63.71,86.46Z"/><g class="cls-10"><path class="cls-41" d="M71.41,87.15c2.86-2,3.43-4,3.28-5.42a6.62,6.62,0,1,1-11.24,4.73A6.68,6.68,0,0,1,63.91,84C63.24,87.43,67.61,89.43,71.41,87.15Z"/></g><path d="M68.39,80.37l-.14.33c-.07.21-.21.51-.36.86s-.34.77-.53,1.21c-.1.21-.22.43-.32.66a7.21,7.21,0,0,1-.33.69c-.23.45-.44.92-.69,1.33-.12.2-.23.41-.33.6s-.21.38-.31.54c-.21.32-.36.61-.48.8s-.18.32-.18.32l.26-.25c.15-.17.39-.4.65-.7l.2-.22.19-.27c.13-.18.27-.38.4-.58a4.71,4.71,0,0,0,.4-.65l.37-.69a15.26,15.26,0,0,0,.6-1.41c.09-.23.15-.46.22-.67s.13-.42.17-.61A8.41,8.41,0,0,0,68.39,80.37Z"/><path d="M71.35,80.53l-.55,1.32-.57,1.34c-.21.49-.43,1-.67,1.52s-.48,1-.72,1.49l-.36.67-.34.59-.31.49a3.14,3.14,0,0,1-.25.36l-.23.33.31-.26a4.26,4.26,0,0,0,.33-.31l.4-.43a10.55,10.55,0,0,0,.86-1.21c.28-.46.55-1,.8-1.5s.45-1.06.62-1.57.31-1,.42-1.41.16-.78.2-1A3.43,3.43,0,0,0,71.35,80.53Z"/><path d="M74.53,82.12s-.22.45-.52,1.11l-.52,1.12c-.19.41-.39.85-.6,1.28s-.43.85-.64,1.25l-.32.56-.31.49a7.84,7.84,0,0,1-.5.71c-.13.18-.21.27-.21.27l.28-.19a4.55,4.55,0,0,0,.67-.6,7.27,7.27,0,0,0,.79-1,7,7,0,0,0,.37-.61c.12-.21.24-.42.35-.65.21-.44.4-.89.56-1.33s.27-.84.37-1.2A9.18,9.18,0,0,0,74.53,82.12Z"/><path d="M76,84.53s-.21.25-.47.64l-.44.67c-.15.25-.31.51-.46.78s-.32.53-.45.79l-.38.7c-.11.2-.21.37-.27.49l-.1.2a1.48,1.48,0,0,0,.18-.13l.2-.16a2.29,2.29,0,0,0,.24-.22,7.3,7.3,0,0,0,.53-.62c.17-.25.35-.51.51-.78s.3-.56.42-.83a6.78,6.78,0,0,0,.29-.76A4,4,0,0,0,76,84.53Z"/><path d="M76.33,85.9a2.82,2.82,0,0,0-.2-.34,10.18,10.18,0,0,0-.58-.85,13.91,13.91,0,0,0-1-1.12,15.07,15.07,0,0,0-1.22-1.16,11.57,11.57,0,0,0-1.37-1,6.62,6.62,0,0,0-.67-.38,6.83,6.83,0,0,0-.64-.29l-.55-.2c-.17-.06-.32-.08-.44-.12l-.39-.08.35.18c.11.06.25.11.4.2l.49.29.57.36c.21.13.4.29.62.43s.42.33.64.48l.65.53c.85.71,1.67,1.48,2.28,2.07Z"/><path d="M75.24,88.53,75,88.12c-.18-.25-.43-.61-.76-1s-.72-.88-1.17-1.36-1-1-1.48-1.45l-.81-.68c-.27-.21-.55-.41-.82-.6a13.11,13.11,0,0,0-1.55-.94q-.36-.18-.66-.3a5.31,5.31,0,0,0-.52-.2l-.46-.15.42.25a4.16,4.16,0,0,1,.47.27l.6.39.68.49.74.56.78.63c.25.23.51.45.78.68,1,.92,2,1.89,2.77,2.62Z"/><path d="M71,88.31a6.54,6.54,0,0,0-.61-1.09c-.1-.16-.22-.32-.35-.49a6.48,6.48,0,0,0-.42-.53,12.85,12.85,0,0,0-1-1L68,84.68a4.56,4.56,0,0,0-.59-.42l-.57-.36a3.1,3.1,0,0,0-.54-.28c-.69-.3-1.16-.46-1.16-.46s.39.32,1,.73a2.92,2.92,0,0,1,.48.35c.16.13.33.27.51.4.38.26.73.6,1.1.91a5,5,0,0,1,.53.49c.17.17.35.32.52.48.31.32.62.62.87.89s.47.49.61.65Z"/><path d="M64.12,85.13a3.3,3.3,0,0,0,.33.63,6,6,0,0,0,.42.59,6.37,6.37,0,0,0,.57.6,7.3,7.3,0,0,0,.64.52c.23.14.45.27.64.36a4.08,4.08,0,0,0,.69.21,6,6,0,0,0-.52-.47c-.15-.14-.32-.31-.51-.47s-.38-.35-.58-.54L65.21,86l-.53-.46C64.36,85.3,64.12,85.13,64.12,85.13Z"/><path class="cls-17" d="M70.09,80.91s-3.86.69-5.43,3.76C65.1,82.23,67.71,80.28,70.09,80.91Z"/><path class="cls-17" d="M70.71,80.92c0,.15.28.28.64.28s.63-.13.63-.28-.28-.28-.63-.28S70.71,80.76,70.71,80.92Z"/><polygon class="cls-52" points="80.49 89.62 79.88 96.92 58.9 95.7 59.75 88.28 80.49 89.62"/><path class="cls-48" d="M79.86,97.18,58.88,96a.27.27,0,0,1-.25-.3l.85-7.42a.29.29,0,0,1,.29-.24L80.5,89.35a.31.31,0,0,1,.19.09.25.25,0,0,1,.06.2l-.61,7.3a.25.25,0,0,1-.26.24ZM60,88.56l-.79,6.89,20.44,1.18.57-6.76Z"/><g class="cls-5"><path class="cls-48" d="M59.75,88.28l.25,0c1.36,2,4.44,5.57,9.5,5.46a18.57,18.57,0,0,0,10.87-4.15h.12l-.61,7.3-21-1.22Z"/></g><path class="cls-17" d="M87.6,149.6a91.36,91.36,0,0,1-27.22,10.14C50.24,161.52,68.91,162.41,87.6,149.6Z"/><g id="Layer_2-2" data-name="Layer 2"><g id="Layer_1-2-2" data-name="Layer 1-2"><path class="cls-53" d="M75.53,93.51l-7.1-.45a.17.17,0,0,0-.17.15L67.9,95a.16.16,0,0,0,.15.17l7.1.45a.17.17,0,0,0,.17-.15h0l.36-1.78a.16.16,0,0,0-.15-.17ZM70.13,95h0l-.33,0s0,0,0,0l-.31-.79s0,0,0,0h0l-.13.74,0,0h0l-.35,0h0a0,0,0,0,1,0,0l.28-1.5s0,0,0,0,0,0,0,0l.33,0s0,0,0,0l.3.78s0,0,0,0h0l.14-.75v0h0l.34,0,0,0h0L70.14,95A0,0,0,0,1,70.13,95Zm1.52-1.16,0,0h0l-.65,0,0,0,0,.2s0,0,0,0l.41,0h0v0l0,.29,0,0s0,0,0,0l-.41,0h0l0,.23h0l.65,0a0,0,0,0,1,0,0h0l-.06.29s0,0,0,0h0l-1-.06h0a0,0,0,0,1,0,0l.28-1.5s0,0,0,0h0l1.05.06h0v0Zm1.4,1.34-.35,0s0,0,0,0h0l0-.77h0s0,0,0,0l-.28.75s0,0,0,0l-.33,0s0,0,0,0v0l-.16-1.53h0s0,0,0,0h0l.37,0a0,0,0,0,1,0,0l.05.73h0l.28-.71s0,0,0,0l.32,0a0,0,0,0,1,0,0h0l0,.74a0,0,0,0,0,0,0h0l.3-.72,0,0,.38,0h0v0l-.67,1.48s0,0,0,0Zm1.85-1v0s0,0,0,0l-.34,0s0,0,0,0,0,0,0,0h0a.12.12,0,0,0,0-.08.13.13,0,0,0-.06-.07l-.11,0a.21.21,0,0,0-.12,0,.12.12,0,0,0-.06.08.13.13,0,0,0,.06.1l.22.1.14.06a.52.52,0,0,1,.19.14.39.39,0,0,1,.07.23s0,0,0,.06a.56.56,0,0,1-.23.35.77.77,0,0,1-.46.1.63.63,0,0,1-.39-.14.37.37,0,0,1-.13-.34.18.18,0,0,1,0-.06v0s0,0,0,0h0l.34,0h0v0a.12.12,0,0,0,0,.11.25.25,0,0,0,.16.06.23.23,0,0,0,.13,0,.14.14,0,0,0,0-.08.08.08,0,0,0,0-.07l-.14-.07-.06,0a1,1,0,0,1-.32-.18.34.34,0,0,1-.11-.3.52.52,0,0,1,.1-.27.64.64,0,0,1,.25-.18.86.86,0,0,1,.32,0,.69.69,0,0,1,.28.08.42.42,0,0,1,.18.17.37.37,0,0,1,.06.25.18.18,0,0,1,0,.06Z"/><path class="cls-53" d="M67.56,95.15l-.32,0a.14.14,0,0,1-.13-.15l.38-1.83a.13.13,0,0,1,.15-.13h0L68,93a.14.14,0,0,1,.13.15L67.71,95A.16.16,0,0,1,67.56,95.15Z"/><path class="cls-53" d="M66.79,95.1h-.11a.13.13,0,0,1-.13-.15l.38-1.82a.15.15,0,0,1,.15-.14h.11a.15.15,0,0,1,.13.15L66.93,95A.14.14,0,0,1,66.79,95.1Z"/><path class="cls-53" d="M66.2,95.07h0a.15.15,0,0,1-.13-.15h0l.39-1.83a.14.14,0,0,1,.15-.13h0a.14.14,0,0,1,.13.15h0l-.39,1.83A.14.14,0,0,1,66.2,95.07Z"/><path class="cls-17" d="M65.41,91.24l.09-1.46.92,0-.09,1.44c0,.41.12.57.38.59s.43-.13.45-.54l.09-1.44.9.06-.09,1.47a1.33,1.33,0,0,1-2.65-.17Z"/><path class="cls-17" d="M68.58,90l.92,0-.17,2.73-.92-.06Z"/><path class="cls-17" d="M69.83,91.41a1.41,1.41,0,0,1,1.61-1.27,1.54,1.54,0,0,1,1.19.6L72,91.2a.74.74,0,0,0-.58-.34.65.65,0,0,0-.08,1.3.73.73,0,0,0,.62-.27l.55.54a1.52,1.52,0,0,1-1.26.44A1.4,1.4,0,0,1,69.83,91.41Z"/><path class="cls-17" d="M74.08,92.14l-.22.21,0,.68L72.91,93l.17-2.73.9.06-.06,1,1-.93,1,.06-1.16,1.13,1,1.6-1.06-.07Z"/><path class="cls-17" d="M65,91.11a1.3,1.3,0,0,1-.16.55l-.16-.34-.08-.16-.15.1-.22.15L64,91.19a.41.41,0,0,0-.22-.54.44.44,0,0,0-.32,0l-.07,0-.09.09a.35.35,0,0,0,0,.08.41.41,0,0,0,.21.54l0,0,.45.93a1.37,1.37,0,1,1,1-1.66,1.5,1.5,0,0,1,0,.42Z"/><polygon class="cls-53" points="65.27 92.94 64.47 92.14 64.13 92.36 64.11 92.31 63.69 91.43 63.4 90.82 63.91 91.32 64.21 91.62 64.53 91.39 64.73 91.82 65.27 92.94"/></g></g></g></g></g></svg>