<svg xmlns="http://www.w3.org/2000/svg" viewBox="0 0 603.61 232.13"><defs><style>.cls-1{fill:#ff200a;}.cls-2{fill:#271e30;}</style></defs><g id="Layer_2" data-name="Layer 2"><g id="Layer_1-2" data-name="Layer 1"><path class="cls-1" d="M594.14,137.79l-315.33-.42a7.18,7.18,0,0,0-7.19,7.18L260.5,224.31a7.19,7.19,0,0,0,7.19,7.2l315.33.41a7.18,7.18,0,0,0,7.19-7.18L601.33,145A7.18,7.18,0,0,0,594.14,137.79ZM359.26,219.53a1.61,1.61,0,0,1-1.15.41H343.48a1.57,1.57,0,0,1-1.61-1l-15.63-33.89c-.14-.26-.27-.36-.4-.29s-.24.23-.31.5l-3.81,33.18a1.69,1.69,0,0,1-.55,1.09,1.61,1.61,0,0,1-1.14.41H304.68a1.27,1.27,0,0,1-1.05-.41,1.29,1.29,0,0,1-.25-1.09l8.32-67.16a1.85,1.85,0,0,1,.5-1.1,1.47,1.47,0,0,1,1.1-.4h14.64a1.64,1.64,0,0,1,1.71,1l15.43,33.88c.13.26.26.36.4.3a.74.74,0,0,0,.3-.51l4-33.17a1.85,1.85,0,0,1,.5-1.1,1.49,1.49,0,0,1,1.1-.4h15.34a1.34,1.34,0,0,1,1.06.4,1.38,1.38,0,0,1,.25,1.1l-8.22,67.16A1.74,1.74,0,0,1,359.26,219.53Zm64-55.12a1.91,1.91,0,0,1-.5,1.11,1.51,1.51,0,0,1-1.1.39h-29c-.34,0-.57.2-.7.61l-1.11,9.22q-.09.6.51.6h17.94a1.21,1.21,0,0,1,.95.4,1.32,1.32,0,0,1,.26,1.1l-1.61,13a1.94,1.94,0,0,1-.5,1.1,1.51,1.51,0,0,1-1.1.4H389.38a.53.53,0,0,0-.6.6l-1.3,10.22c0,.4.17.61.5.61h29a1.37,1.37,0,0,1,1.06.39,1.41,1.41,0,0,1,.25,1.11l-1.61,13.13a1.78,1.78,0,0,1-.55,1.09,1.48,1.48,0,0,1-1.05.41H368.63a1.2,1.2,0,0,1-1.3-1.5l8.33-67.16a1.74,1.74,0,0,1,.5-1.1,1.46,1.46,0,0,1,1.1-.4h46.41a1.16,1.16,0,0,1,.94.4,1.24,1.24,0,0,1,.25,1.1Zm65.66,55.53H473.39a1.31,1.31,0,0,1-1.51-1.3l-2.71-34.19c0-.26-.08-.4-.25-.4s-.31.14-.44.4l-10.33,34.08a1.79,1.79,0,0,1-1.71,1.41H441.91a1.34,1.34,0,0,1-.91-.35,1.63,1.63,0,0,1-.5-1l-11-67.16v-.41a1.19,1.19,0,0,1,.4-.94,1.47,1.47,0,0,1,1-.35h16.55a1.31,1.31,0,0,1,1.39,1.29L453,183.45c0,.28.11.41.31.41s.33-.13.4-.41l10.52-32.38a1.71,1.71,0,0,1,1.81-1.29H480.2a1.31,1.31,0,0,1,1.4,1.29l3.21,32.38c.07.28.2.41.41.41s.32-.13.39-.41l11.23-32.38a1.55,1.55,0,0,1,1.7-1.29h16.54a1.23,1.23,0,0,1,1.1.44,1.32,1.32,0,0,1,0,1.26l-25.55,67.16A1.77,1.77,0,0,1,488.92,219.94Zm79.39-47.71-.1.91a1.72,1.72,0,0,1-.56,1.09,1.63,1.63,0,0,1-1.15.41h-15a1.2,1.2,0,0,1-1.31-1.5V173a5.69,5.69,0,0,0-.65-3.7,7.62,7.62,0,0,0-3-3,10,10,0,0,0-5.07-1.2,8.84,8.84,0,0,0-5.31,1.45,4.64,4.64,0,0,0-2,4c0,1.54.88,2.83,2.66,3.87a63.66,63.66,0,0,0,10.06,4.06c.54.19,2.59.88,6.18,2a19.87,19.87,0,0,1,9,5.92,14.83,14.83,0,0,1,3.61,10.07c0,.55-.07,1.41-.2,2.61A22.29,22.29,0,0,1,556.18,215q-7.92,5.79-19.85,5.77-11.43,0-18-5.25t-6.57-14.3c0-.59.07-1.56.2-2.9l.21-1.41a1.72,1.72,0,0,1,.54-1.09,1.5,1.5,0,0,1,1.06-.41h15.14a1.3,1.3,0,0,1,1.05.41,1.26,1.26,0,0,1,.24,1.09l-.1.6a5.55,5.55,0,0,0,2.27,5c1.7,1.43,4.16,2.15,7.36,2.15q3.91,0,5.61-1.81a5.4,5.4,0,0,0,1.71-3.7,3.24,3.24,0,0,0-1.86-3,40.87,40.87,0,0,0-6.47-2.41l-2.7-.89a46.1,46.1,0,0,1-14.29-7.17Q516,181.15,516,172.83a21.27,21.27,0,0,1,3.75-12.43A24.9,24.9,0,0,1,530,152a33.14,33.14,0,0,1,14.18-3,30.32,30.32,0,0,1,12.58,2.51,20,20,0,0,1,8.67,7.17,18.79,18.79,0,0,1,3.11,10.68C568.51,169.92,568.44,170.89,568.31,172.23Z"/><path class="cls-1" d="M245.87,231.92H231.62a6.21,6.21,0,0,1-6.2-6.2l12-81.94a6.21,6.21,0,0,1,6.2-6.2h14.25a6.2,6.2,0,0,1,6.2,6.2l-12,81.94A6.2,6.2,0,0,1,245.87,231.92Z"/><path class="cls-1" d="M211.6,231.92h-4.8a6.2,6.2,0,0,1-6.2-6.2l12-81.94a6.2,6.2,0,0,1,6.2-6.2h4.8a6.21,6.21,0,0,1,6.2,6.2l-12,81.94A6.21,6.21,0,0,1,211.6,231.92Z"/><path class="cls-1" d="M185.85,232.13h0a6.19,6.19,0,0,1-6.2-6.2L191.6,144a6.21,6.21,0,0,1,6.21-6.2h0A6.21,6.21,0,0,1,204,144l-12,81.94A6.2,6.2,0,0,1,185.85,232.13Z"/><path class="cls-2" d="M140.05,65.14V0h40.84V64c0,18.1,7.1,24.87,18.52,24.87S217.92,82.05,217.92,64V0h40.15V65.14c0,35.52-21.8,56-59,56S140.05,100.66,140.05,65.14Z"/><path class="cls-2" d="M276.75,0h40.84V121.13H276.75Z"/><path class="cls-2" d="M336.33,60.6C336.33,25,364.88,0,403.82,0c23.7,0,42.39,8.28,54.33,23.18l-25.78,22c-7.09-8.61-15.57-13.58-26.48-13.58-16.95,0-28.38,11.26-28.38,29s11.43,29,28.38,29c10.91,0,19.39-5,26.48-13.57l25.78,22c-11.94,14.9-30.63,23.18-54.33,23.18C364.88,121.2,336.33,96.2,336.33,60.6Z"/><path class="cls-2" d="M526.08,81,516.91,91.2v29.93H476.77V0h40.14V44L556.71,0h44.48L552.73,53.3l50.88,67.83H556.37Z"/><path class="cls-2" d="M121.14,60.57a60,60,0,0,1-5.29,24.75l-8.14-14.57-4-7.25L97.2,68.72l-9,7.25L77.65,66.7A18.15,18.15,0,0,0,52.24,44.44a17.14,17.14,0,0,0-3.05,2,18.08,18.08,0,0,0-5.68,7.89,18.17,18.17,0,0,0,13.33,24L79,118.27a60.57,60.57,0,1,1,42.16-57.7Z"/><polygon class="cls-1" points="138.8 140.72 100.96 107.58 86.74 117.84 85.57 115.73 64.78 78.23 50.21 51.97 73.99 72.8 88.05 85.12 101.6 74.17 111.94 92.67 138.8 140.72"/></g></g></svg>