<svg xmlns="http://www.w3.org/2000/svg" viewBox="0 0 481.32 185.1"><defs><style>.cls-1{fill:#ff200a;}.cls-2{fill:#fff;}</style></defs><g id="Layer_2" data-name="Layer 2"><g id="Layer_1-2" data-name="Layer 1"><path class="cls-1" d="M473.76,109.88l-251.44-.34a5.73,5.73,0,0,0-5.73,5.73l-8.87,63.6a5.74,5.74,0,0,0,5.74,5.73l251.44.33a5.72,5.72,0,0,0,5.73-5.73l8.87-63.6A5.73,5.73,0,0,0,473.76,109.88ZM286.48,175.06a1.37,1.37,0,0,1-.92.32H273.89a1.23,1.23,0,0,1-1.28-.8l-12.47-27c-.11-.21-.21-.29-.32-.23s-.19.18-.24.4l-3,26.45a1.38,1.38,0,0,1-.44.88,1.35,1.35,0,0,1-.91.32H243a1,1,0,0,1-.83-.32,1,1,0,0,1-.2-.88l6.63-53.55a1.5,1.5,0,0,1,.4-.88,1.18,1.18,0,0,1,.87-.32H261.5a1.32,1.32,0,0,1,1.36.8l12.31,27c.1.21.2.28.32.23a.56.56,0,0,0,.23-.4l3.2-26.45a1.57,1.57,0,0,1,.4-.88,1.2,1.2,0,0,1,.88-.32h12.23a1,1,0,0,1,1,1.2l-6.55,53.55A1.43,1.43,0,0,1,286.48,175.06Zm51-44a1.47,1.47,0,0,1-.4.88,1.2,1.2,0,0,1-.88.31h-23.1c-.27,0-.45.17-.56.49l-.88,7.35c-.05.32.08.48.41.48h14.3a.94.94,0,0,1,.75.32,1,1,0,0,1,.21.88l-1.28,10.39a1.45,1.45,0,0,1-.4.88,1.2,1.2,0,0,1-.88.32H310.49a.42.42,0,0,0-.48.48L309,162c0,.32.14.48.4.48h23.1a1,1,0,0,1,1,1.2l-1.29,10.47a1.42,1.42,0,0,1-.43.88,1.26,1.26,0,0,1-.84.32H294a1.06,1.06,0,0,1-.84-.32,1,1,0,0,1-.2-.88l6.64-53.55a1.45,1.45,0,0,1,.4-.88,1.16,1.16,0,0,1,.87-.32h37a.94.94,0,0,1,.75.32,1,1,0,0,1,.2.88Zm52.35,44.28H377.48a1,1,0,0,1-1.2-1l-2.16-27.26c0-.2-.07-.32-.2-.32s-.25.12-.36.32l-8.24,27.18a1.42,1.42,0,0,1-1.36,1.12H352.38a1,1,0,0,1-.72-.28,1.23,1.23,0,0,1-.4-.76l-8.8-53.55v-.33a.94.94,0,0,1,.33-.75,1.15,1.15,0,0,1,.79-.28h13.2a1.06,1.06,0,0,1,1.11,1l3.36,25.83c0,.21.08.32.24.32s.27-.11.32-.32l8.39-25.83a1.37,1.37,0,0,1,1.44-1h11.27a1.06,1.06,0,0,1,1.12,1l2.56,25.83c.05.21.15.32.32.32s.26-.11.31-.32l9-25.83a1.24,1.24,0,0,1,1.35-1h13.2a1,1,0,0,1,.87.36,1,1,0,0,1,0,1l-20.38,53.55A1.41,1.41,0,0,1,389.86,175.38Zm63.31-38-.08.72a1.32,1.32,0,0,1-1.37,1.19h-12a1.08,1.08,0,0,1-.84-.32,1.06,1.06,0,0,1-.2-.87V138a4.59,4.59,0,0,0-.52-2.95,6.08,6.08,0,0,0-2.4-2.4,7.86,7.86,0,0,0-4-1,7,7,0,0,0-4.24,1.16,3.68,3.68,0,0,0-1.6,3.15,3.61,3.61,0,0,0,2.12,3.09,50.55,50.55,0,0,0,8,3.23c.42.16,2.06.71,4.92,1.63a15.79,15.79,0,0,1,7.15,4.73,11.8,11.8,0,0,1,2.87,8c0,.44-.05,1.12-.15,2.09a17.79,17.79,0,0,1-7.35,12.66q-6.31,4.61-15.83,4.6-9.12,0-14.35-4.19a13.85,13.85,0,0,1-5.23-11.4c0-.48.05-1.25.15-2.32l.17-1.12a1.39,1.39,0,0,1,.43-.87,1.19,1.19,0,0,1,.84-.32h12.08a1,1,0,0,1,.84.32,1,1,0,0,1,.19.87l-.08.48a4.39,4.39,0,0,0,1.81,4,8.81,8.81,0,0,0,5.86,1.72c2.09,0,3.58-.48,4.48-1.44a4.35,4.35,0,0,0,1.36-3,2.59,2.59,0,0,0-1.48-2.41,32.33,32.33,0,0,0-5.16-1.92l-2.15-.71A36.5,36.5,0,0,1,416,148c-3.07-2.37-4.59-5.76-4.59-10.19a16.93,16.93,0,0,1,3-9.91,19.83,19.83,0,0,1,8.16-6.71,26.42,26.42,0,0,1,11.31-2.4,24.16,24.16,0,0,1,10,2,15.86,15.86,0,0,1,6.92,5.72,15,15,0,0,1,2.48,8.51C453.33,135.5,453.27,136.27,453.17,137.34Z"/><path class="cls-1" d="M196.06,184.93H184.7a5,5,0,0,1-4.95-4.94l9.54-65.34a4.94,4.94,0,0,1,4.94-4.94h11.36a5,5,0,0,1,4.95,4.94L201,180A4.94,4.94,0,0,1,196.06,184.93Z"/><path class="cls-1" d="M168.73,184.93H164.9A4.94,4.94,0,0,1,160,180l9.53-65.34a5,5,0,0,1,4.95-4.94h3.82a5,5,0,0,1,5,4.94L173.67,180A4.94,4.94,0,0,1,168.73,184.93Z"/><path class="cls-1" d="M148.19,185.1h0a4.94,4.94,0,0,1-4.94-4.94l9.53-65.34a5,5,0,0,1,4.95-4.94h0a4.94,4.94,0,0,1,4.94,4.94l-9.53,65.34A5,5,0,0,1,148.19,185.1Z"/><path class="cls-2" d="M111.68,51.94V0h32.56V51c0,14.44,5.66,19.83,14.77,19.83S173.77,65.43,173.77,51V0h32V51.94c0,28.33-17.38,44.65-47.05,44.65S111.68,80.27,111.68,51.94Z"/><path class="cls-2" d="M220.68,0h32.56V96.59H220.68Z"/><path class="cls-2" d="M268.19,48.32C268.19,19.94,291,0,322,0c18.91,0,33.81,6.6,43.33,18.48L344.77,36c-5.66-6.86-12.42-10.82-21.11-10.82-13.52,0-22.63,9-22.63,23.1s9.11,23.1,22.63,23.1c8.69,0,15.45-4,21.11-10.82l20.56,17.56C355.81,90,340.91,96.64,322,96.64,291,96.64,268.19,76.71,268.19,48.32Z"/><path class="cls-2" d="M419.5,64.58l-7.32,8.14V96.59h-32V0h32V35.05L443.92,0h35.46L440.75,42.5l40.57,54.09H443.65Z"/><path class="cls-2" d="M96.6,48.3A47.87,47.87,0,0,1,92.38,68L85.89,56.42l-3.23-5.78L77.51,54.8l-7.16,5.78-8.43-7.39A14.47,14.47,0,0,0,41.66,35.44,13.59,13.59,0,0,0,39.22,37a14.63,14.63,0,0,0-3,3.28,15,15,0,0,0-1.53,3A14.51,14.51,0,0,0,45.32,62.48L63,94.31a48.3,48.3,0,1,1,33.62-46Z"/><polygon class="cls-1" points="110.68 112.21 80.5 85.78 69.17 93.97 68.23 92.29 51.66 62.38 40.04 41.44 59 58.05 70.21 67.88 81.02 59.14 89.26 73.89 110.68 112.21"/></g></g></svg>